<svg xmlns="http://www.w3.org/2000/svg" width="59.651" height="59.651" viewBox="0 0 59.651 59.651"><defs><style>.a{fill:rgba(0,0,0,0.75);}</style></defs><path class="a" d="M148.659,477.867H120.474a1.007,1.007,0,0,0-1.007,1.007v2.013a1.007,1.007,0,0,0,2.013,0V479.88h27.179a1.007,1.007,0,0,0,0-2.013Z" transform="translate(-105.722 -422.242)"/><path class="a" d="M187.733,160.646a1.007,1.007,0,0,0,1.007,1.007h4.027a1.007,1.007,0,0,0,1.007-1.007v-6.04a1.007,1.007,0,0,0-1.007-1.007H188.74a1.007,1.007,0,0,0-1.007,1.007v6.04Zm2.013-5.033h2.013v4.026h-2.013Z" transform="translate(-165.891 -135.739)"/><path class="a" d="M13.086,102.4H1.007A1.007,1.007,0,0,0,0,103.407v20.132a1.007,1.007,0,0,0,2.013,0V104.413H13.086a1.007,1.007,0,0,0,0-2.013Z" transform="translate(0 -90.556)"/><path class="a" d="M409.6,365.446a1.007,1.007,0,0,0,1.007,1.007h4.026a1.007,1.007,0,0,0,1.007-1.007v-6.04a1.007,1.007,0,0,0-1.007-1.007h-4.026a1.007,1.007,0,0,0-1.007,1.007Zm2.013-5.033h2.013v4.026h-2.013Z" transform="translate(-362.028 -316.724)"/><path class="a" d="M5.033,307.2C.057,307.2,0,320.155,0,320.286a5.042,5.042,0,0,0,4.026,4.931v5.135a1.007,1.007,0,0,0,2.013,0v-5.135a5.042,5.042,0,0,0,4.026-4.931C10.066,320.155,10.009,307.2,5.033,307.2Zm0,16.106a3.024,3.024,0,0,1-3.02-3.02c0-5.015,1.347-11.073,3.02-11.073s3.02,6.058,3.02,11.073A3.024,3.024,0,0,1,5.033,323.306Z" transform="translate(0 -271.707)"/><path class="a" d="M56.233,256H52.207a1.007,1.007,0,0,0-1.007,1.007v2.013a1.007,1.007,0,1,0,2.013,0v-1.007h2.013v5.033a1.007,1.007,0,1,0,2.013,0v-6.04A1.007,1.007,0,0,0,56.233,256Z" transform="translate(-45.16 -226.232)"/><path class="a" d="M410.607,161.654h4.026a1.007,1.007,0,0,0,1.007-1.007v-6.04a1.007,1.007,0,0,0-1.007-1.007h-4.026a1.007,1.007,0,0,0-1.007,1.007v6.04A1.007,1.007,0,0,0,410.607,161.654Zm1.007-6.04h2.013v4.026h-2.013Z" transform="translate(-362.028 -135.74)"/><path class="a" d="M56.233,153.6H52.207a1.007,1.007,0,0,0-1.007,1.007v6.04a1.007,1.007,0,0,0,1.007,1.007h4.026a1.007,1.007,0,0,0,1.007-1.007v-6.04A1.007,1.007,0,0,0,56.233,153.6Zm-1.007,6.04H53.213v-4.026h2.013v4.026Z" transform="translate(-45.16 -135.739)"/><path class="a" d="M273.067,160.646a1.007,1.007,0,0,0,1.007,1.007H278.1a1.007,1.007,0,0,0,1.007-1.007v-6.04A1.007,1.007,0,0,0,278.1,153.6h-4.026a1.007,1.007,0,0,0-1.007,1.007Zm2.013-5.033h2.013v4.026H275.08Z" transform="translate(-241.297 -135.739)"/><path class="a" d="M405.62,102.4H393.541a1.007,1.007,0,0,0,0,2.013h11.073v40.45a2.876,2.876,0,0,0-1.524-.14,4.02,4.02,0,0,0-7.018,0,2.957,2.957,0,0,0-.517-.045,3.02,3.02,0,1,0,0,6.04h8.053a3.024,3.024,0,0,0,3.02-3.02V103.407A1.007,1.007,0,0,0,405.62,102.4Zm-2.013,46.3h-8.053a1.007,1.007,0,0,1,0-2.013,1,1,0,0,1,.546.164,1.007,1.007,0,0,0,1.526-.619,2.005,2.005,0,0,1,3.91,0,1.007,1.007,0,0,0,1.526.619,1.027,1.027,0,0,1,1.552.842A1.008,1.008,0,0,1,403.607,148.7Z" transform="translate(-346.975 -91.066)"/><path class="a" d="M274.074,59.254H278.1a1.007,1.007,0,0,0,1.007-1.007v-6.04A1.007,1.007,0,0,0,278.1,51.2h-4.026a1.007,1.007,0,0,0-1.007,1.007v6.04A1.007,1.007,0,0,0,274.074,59.254Zm1.007-6.04h2.013v4.026H275.08Z" transform="translate(-241.297 -45.161)"/><path class="a" d="M273.067,263.046a1.007,1.007,0,0,0,1.007,1.007H278.1a1.007,1.007,0,0,0,1.007-1.007v-6.04A1.007,1.007,0,0,0,278.1,256h-4.026a1.007,1.007,0,0,0-1.007,1.007Zm2.013-5.033h2.013v4.026H275.08Z" transform="translate(-241.297 -226.232)"/><path class="a" d="M188.741,59.254h4.026a1.007,1.007,0,0,0,1.007-1.007v-6.04a1.007,1.007,0,0,0-1.007-1.007h-4.026a1.007,1.007,0,0,0-1.007,1.007v6.04A1.007,1.007,0,0,0,188.741,59.254Zm1.007-6.04h2.013v4.026h-2.013Z" transform="translate(-165.892 -45.161)"/><path class="a" d="M247.758,409.986a1.007,1.007,0,1,0,1.429,0A1.059,1.059,0,0,0,247.758,409.986Z" transform="translate(-218.647 -362.122)"/><path class="a" d="M187.733,263.046a1.007,1.007,0,0,0,1.007,1.007h4.027a1.007,1.007,0,0,0,1.007-1.007v-6.04A1.007,1.007,0,0,0,192.766,256H188.74a1.007,1.007,0,0,0-1.007,1.007v6.04Zm2.013-5.033h2.013v4.026h-2.013Z" transform="translate(-165.891 -226.232)"/><path class="a" d="M170.667,359.407a1.007,1.007,0,0,0,1.007,1.007h3.02v9.06a1.007,1.007,0,0,0,2.013,0v-9.06h8.053v9.06a1.007,1.007,0,0,0,2.013,0v-9.06h3.02a1.007,1.007,0,1,0,0-2.013H171.674A1.007,1.007,0,0,0,170.667,359.407Z" transform="translate(-150.907 -316.868)"/><path class="a" d="M409.6,263.046a1.007,1.007,0,0,0,1.007,1.007h4.026a1.007,1.007,0,0,0,1.007-1.007v-6.04A1.007,1.007,0,0,0,414.633,256h-4.026a1.007,1.007,0,0,0-1.007,1.007Zm2.013-5.033h2.013v4.026h-2.013Z" transform="translate(-362.028 -226.232)"/><path class="a" d="M163.713,0H137.541a1,1,0,0,0-1.007.993V52.619a1.007,1.007,0,0,0,2.013,0V1.986h24.159V52.619a1.007,1.007,0,0,0,2.013,0V.993A1,1,0,0,0,163.713,0Z" transform="translate(-120.801)"/></svg>