<svg xmlns="http://www.w3.org/2000/svg" width="60" height="61.829" viewBox="0 0 60 61.829"><defs><style>.a{fill:rgba(0,0,0,0.75);}</style></defs><g transform="translate(-5.975)"><g transform="translate(5.975)"><path class="a" d="M239.213,175.6a1.242,1.242,0,0,0-1.238,1.238V178.7a1.238,1.238,0,0,0,2.477,0v-1.858A1.242,1.242,0,0,0,239.213,175.6Z" transform="translate(-202.487 -148.749)"/><path class="a" d="M60.58,26.874l5.2-13.1a2.473,2.473,0,0,0-.184-2.265,2.3,2.3,0,0,0-2.02-1.1H43.929V9.183a6.14,6.14,0,0,0-6.122-6.122H16.994V1.224a1.224,1.224,0,1,0-2.449,0V59.38H7.2a1.224,1.224,0,1,0,0,2.449H24.34a1.224,1.224,0,1,0,0-2.449H16.994V34.832H34.2v1.224a6.14,6.14,0,0,0,6.122,6.122h23.2a2.365,2.365,0,0,0,2.02-1.1,2.284,2.284,0,0,0,.184-2.326ZM40.318,39.73a3.684,3.684,0,0,1-3.673-3.673V33.608a1.228,1.228,0,0,0-1.224-1.224.552.552,0,0,0-.306.061c-.122,0-.184-.061-.306-.061H16.994V5.448H37.808a3.684,3.684,0,0,1,3.673,3.673V22.589a1.224,1.224,0,0,0,2.449,0V12.794H63.519v.061l-5.387,13.59a1.194,1.194,0,0,0,0,.918L63.519,39.73Z" transform="translate(-5.975)"/></g></g></svg>