<svg xmlns="http://www.w3.org/2000/svg" width="67" height="60" viewBox="0 0 67 60"><defs><style>.a{fill:rgba(0,0,0,0.75);}</style></defs><g transform="translate(0 -27)"><g transform="translate(14.331 44.961)"><path class="a" d="M136.295,186a1.319,1.319,0,0,0-.567-.039l-.066,0a9.141,9.141,0,0,0,2.767-6.555V166.314A1.314,1.314,0,0,0,137.115,165h-9.731a7.3,7.3,0,0,0-7.295,7.295v7.1a9.141,9.141,0,0,0,2.767,6.555l-.066,0a1.321,1.321,0,0,0-.567.039,13.352,13.352,0,0,0-12.133,13.28v6.451a1.314,1.314,0,0,0,1.314,1.314h35.71a1.314,1.314,0,0,0,1.314-1.314v-6.451A13.353,13.353,0,0,0,136.295,186Zm-13.579-11.86v-1.84h0a4.673,4.673,0,0,1,4.667-4.667H135.8v3.516a3.225,3.225,0,0,1-3.222,3.222h-9.863v-.23Zm0,5.263v-2.406h9.863a5.814,5.814,0,0,0,3.222-.971V179.4a6.542,6.542,0,1,1-13.085,0Zm10.031,9.17-3.489,3.489-3.489-3.489ZM145.8,204.412H112.717v-3.781h10.721a1.314,1.314,0,1,0,0-2.627H112.8a10.725,10.725,0,0,1,9.339-9.355l6.2,6.2a1.314,1.314,0,0,0,1.858,0l6.2-6.2a10.721,10.721,0,0,1,9.417,10.626Z" transform="translate(-110.09 -165)"/></g><g transform="translate(32.186 77.964)"><path class="a" d="M248.242,416.6a1.313,1.313,0,1,0,.385.929A1.323,1.323,0,0,0,248.242,416.6Z" transform="translate(-246 -416.22)"/></g><g transform="translate(28.524 27)"><path class="a" d="M223.119,27a4.992,4.992,0,0,0-1.314,9.808v3.209a1.314,1.314,0,1,0,2.627,0V36.808A4.992,4.992,0,0,0,223.119,27Zm0,7.357a2.365,2.365,0,1,1,2.365-2.365A2.367,2.367,0,0,1,223.119,34.357Z" transform="translate(-218.127 -27)"/></g><g transform="translate(49.242 35.785)"><path class="a" d="M387.342,95.333a4.992,4.992,0,0,0-7.864,6.006l-2.269,2.269a1.314,1.314,0,0,0,1.858,1.858l2.268-2.268a4.993,4.993,0,0,0,6.007-7.865Zm-1.858,5.2a2.364,2.364,0,1,1,.693-1.672A2.367,2.367,0,0,1,385.484,100.536Z" transform="translate(-376.824 -93.871)"/></g><g transform="translate(52.67 58.533)"><path class="a" d="M412.26,267.833a5,5,0,0,0-4.815,3.678h-3.208a1.314,1.314,0,0,0,0,2.627h3.208a4.992,4.992,0,1,0,4.815-6.306Zm0,7.357a2.365,2.365,0,1,1,2.365-2.365A2.367,2.367,0,0,1,412.26,275.19Z" transform="translate(-402.922 -267.833)"/></g><g transform="translate(47.756 62.213)"><path class="a" d="M367.242,296.215a1.313,1.313,0,1,0,.385.929A1.323,1.323,0,0,0,367.242,296.215Z" transform="translate(-365 -295.83)"/></g><g transform="translate(0 58.499)"><path class="a" d="M13.016,271.257H9.808a4.992,4.992,0,1,0,0,2.628h3.209a1.314,1.314,0,0,0,0-2.628Zm-8.024,3.678a2.365,2.365,0,1,1,2.365-2.365A2.367,2.367,0,0,1,4.992,274.936Z" transform="translate(0 -267.579)"/></g><g transform="translate(5.701 35.658)"><path class="a" d="M54.991,102.644l-2.268-2.268a4.99,4.99,0,1,0-1.858,1.858l2.268,2.268a1.314,1.314,0,0,0,1.858-1.858Zm-4.93-3.073h0a2.365,2.365,0,1,1,.693-1.672A2.367,2.367,0,0,1,50.061,99.572Z" transform="translate(-43.399 -92.907)"/></g></g></svg>