<svg width="245" height="42" viewBox="0 0 245 42" fill="none" xmlns="http://www.w3.org/2000/svg">
<path d="M29.2723 0.554169V7.91841H7.42282V17.271H25.6307C30.2677 17.4919 32.6954 19.9221 32.9139 24.5616V33.6564C32.6954 38.3695 30.2434 40.8611 25.5579 41.1311H0.139648V33.7669H25.6307V24.6352H7.42282C2.76159 24.2916 0.333866 21.8246 0.139648 17.2342V7.88159C0.333866 3.21757 2.76159 0.775096 7.42282 0.554169H29.2723Z" fill="#0D5D59"/>
<path d="M73.1461 22.7205V7.91841H54.9382V22.7205H73.1461ZM54.9382 30.0848V41.1311H47.6551V0.554169H73.0733C77.7588 0.775096 80.2108 3.25439 80.4293 7.99206V22.6469C80.2108 27.3109 77.7831 29.7902 73.1461 30.0848L80.5022 41.1311H72.4907L65.1347 30.0848H54.9382Z" fill="#0D5D59"/>
<path d="M95.1705 0.701454H102.454V41.1311H95.1705V0.701454Z" fill="#0D5D59"/>
<path d="M117.195 0.627815H124.478V19.0384H142.686V0.627815H149.969V19.1121C149.799 23.7515 147.359 26.1817 142.649 26.4027H137.223V41.1311H129.977V26.4027H124.551C119.792 26.1817 117.34 23.7393 117.195 19.0752V0.627815Z" fill="#0D5D59"/>
<path d="M190.201 33.7669V7.91841H171.993V33.7669H190.201ZM164.71 7.88159C164.904 3.16848 167.332 0.726001 171.993 0.554169H190.165C194.778 0.726001 197.217 3.16848 197.484 7.88159V33.7669C197.363 38.5291 194.935 40.9839 190.201 41.1311H171.993C167.235 40.9839 164.807 38.5291 164.71 33.7669V7.88159Z" fill="#0D5D59"/>
<path d="M212.226 7.95523C212.396 3.19302 214.823 0.726001 219.509 0.554169H237.79C242.475 0.726001 244.878 3.19302 245 7.95523V11.6005H237.717V7.91841H219.509V33.7669H237.717V24.6352H228.686V17.271H245V33.7669C244.757 38.4064 242.354 40.8611 237.79 41.1311H219.509C214.872 40.8857 212.444 38.4432 212.226 33.8037V7.95523Z" fill="#0D5D59"/>
</svg>
