<svg width="354" height="92" viewBox="0 0 354 92" fill="none" xmlns="http://www.w3.org/2000/svg">
<path d="M138.272 29.5542V36.9184H116.423V46.271H134.631C139.268 46.4919 141.696 48.9221 141.914 53.5616V62.6564C141.696 67.3696 139.244 69.8611 134.558 70.1311H109.14V62.7669H134.631V53.6352H116.423C111.762 53.2916 109.334 50.8246 109.14 46.2342V36.8816C109.334 32.2176 111.762 29.7751 116.423 29.5542H138.272Z" fill="#0D5D59"/>
<path d="M182.146 51.7205V36.9184H163.938V51.7205H182.146ZM163.938 59.0848V70.1311H156.655V29.5542H182.073C186.759 29.7751 189.211 32.2544 189.429 36.9921V51.6469C189.211 56.3109 186.783 58.7902 182.146 59.0848L189.502 70.1311H181.491L174.135 59.0848H163.938Z" fill="#0D5D59"/>
<path d="M204.171 29.7015H211.454V70.1311H204.171V29.7015Z" fill="#0D5D59"/>
<path d="M226.195 29.6278H233.478V48.0384H251.686V29.6278H258.969V48.1121C258.799 52.7515 256.359 55.1817 251.65 55.4027H246.224V70.1311H238.977V55.4027H233.551C228.793 55.1817 226.341 52.7393 226.195 48.0752V29.6278Z" fill="#0D5D59"/>
<path d="M299.201 62.7669V36.9184H280.993V62.7669H299.201ZM273.71 36.8816C273.905 32.1685 276.332 29.726 280.993 29.5542H299.165C303.778 29.726 306.218 32.1685 306.485 36.8816V62.7669C306.363 67.5291 303.935 69.9839 299.201 70.1311H280.993C276.235 69.9839 273.807 67.5291 273.71 62.7669V36.8816Z" fill="#0D5D59"/>
<path d="M321.226 36.9552C321.396 32.193 323.823 29.726 328.509 29.5542H346.79C351.475 29.726 353.879 32.193 354 36.9552V40.6005H346.717V36.9184H328.509V62.7669H346.717V53.6352H337.686V46.271H354V62.7669C353.757 67.4064 351.354 69.8611 346.79 70.1311H328.509C323.872 69.8857 321.444 67.4432 321.226 62.8037V36.9552Z" fill="#0D5D59"/>
<path d="M89.4261 57.9027C82.9248 82.4361 57.9852 96.9953 33.7219 90.4216C9.45864 83.8479 -4.94026 58.6306 1.56106 34.0973C8.06239 9.56392 33.002 -4.99525 57.2653 1.57844C81.5286 8.15213 95.9275 33.3694 89.4261 57.9027Z" fill="#0D5D59"/>
<path fill-rule="evenodd" clip-rule="evenodd" d="M53.2275 49.3586C55.7631 46.0603 57.533 41.9956 58.5373 37.1645L66.0264 53.3985C61.2482 62.4633 53.7272 71.3685 43.4632 80.1141L31.213 74.949C36.7583 71.0999 42.6148 64.8778 48.7825 56.2828L37.072 53.8403C34.1378 58.1745 30.0897 62.3367 24.9277 66.3269L12.8953 61.4615C17.8248 58.1173 21.8728 54.3574 25.0394 50.1818C18.7342 47.8988 14.6568 44.7528 12.8073 40.7437C11.0014 36.7141 10.8903 32.8507 12.4738 29.1536C14.101 25.4358 16.6792 22.7447 20.2084 21.0801C23.7812 19.395 27.8068 19.2665 32.2853 20.6946C36.7434 22.0786 40.3169 25.1673 43.0056 29.9606C45.6943 34.754 45.2417 40.3852 41.6478 46.8544L53.2275 49.3586ZM25.5161 39.6579C26.4103 41.5963 27.8144 42.9725 29.7283 43.7863C31.8404 40.4299 33.0768 37.2451 33.4375 34.232C33.8418 31.1984 33.2045 29.2996 31.5259 28.5357C29.8908 27.7513 28.2568 28.9243 26.624 32.0547C24.9708 35.141 24.6015 37.6754 25.5161 39.6579Z" fill="white"/>
<path d="M49.07 29.1848L61.5626 23.2927L79.5716 62.3305L67.079 68.2226L49.07 29.1848ZM42.5213 14.9892L55.0139 9.09709L59.9255 19.7438L47.4329 25.6359L42.5213 14.9892Z" fill="white"/>
</svg>
