<svg id="Layer_1" data-name="Layer 1" xmlns="http://www.w3.org/2000/svg" viewBox="0 0 40 40">
  <defs>
    <style>
      .cls-1 {
        fill: none;
        stroke: #00243d;
        stroke-miterlimit: 10;
        stroke-width: 1.3px;
      }
    </style>
  </defs>
  <g>
    <g>
      <line class="cls-1" x1="38.5" y1="18.05" x2="32.18" y2="18.05"/>
      <line class="cls-1" x1="36.65" y1="8.57" x2="32.18" y2="13.04"/>
      <line class="cls-1" x1="32.18" y1="23.07" x2="36.65" y2="27.54"/>
    </g>
    <g>
      <rect class="cls-1" x="1.9" y="14.91" width="2.53" height="6.32"/>
      <path class="cls-1" d="M4.54,35.2h0a1.26,1.26,0,0,1-1.27-1.26V21.3H5.8V33.94A1.26,1.26,0,0,1,4.54,35.2Z"/>
      <path class="cls-1" d="M24.08,31.34H22.56a.48.48,0,0,1-.36-.15L12.6,21.6a1.26,1.26,0,0,0-.89-.37H4.37V14.91h7.34a1.22,1.22,0,0,0,.89-.37L22.2,5a.48.48,0,0,1,.36-.15h1.52a.51.51,0,0,1,.52.51V30.83A.51.51,0,0,1,24.08,31.34Z"/>
      <polygon class="cls-1" points="27.16 17.07 27.16 19.07 24.63 21.6 24.63 14.54 27.16 17.07"/>
    </g>
  </g>
</svg>
