<?xml version="1.0" encoding="utf-8"?>
<!-- Generator: Adobe Illustrator 27.0.0, SVG Export Plug-In . SVG Version: 6.00 Build 0)  -->
<svg version="1.1" id="Layer_1" xmlns="http://www.w3.org/2000/svg" xmlns:xlink="http://www.w3.org/1999/xlink" x="0px" y="0px"
	 viewBox="0 0 175 23" style="enable-background:new 0 0 175 23;" xml:space="preserve">
<style type="text/css">
	.st0{fill:#12B25A;}
	.st1{fill:#EC2027;}
	.st2{fill:#006735;}
	.st3{fill:#53BA68;}
	.st4{fill:#00AC5B;}
	.st5{clip-path:url(#SVGID_00000041296214165284995800000002333111075656331908_);fill:#9C1E22;}
	.st6{clip-path:url(#SVGID_00000026151274518769024160000008816786676970956980_);fill:#AB1F25;}
</style>
<g>
	<path class="st0" d="M171.6,2.7h0.6c0.2,0,0.4,0,0.5-0.1c0.1-0.1,0.2-0.2,0.2-0.4c0-0.2-0.1-0.3-0.2-0.3c-0.1-0.1-0.3-0.1-0.5-0.1
		h-0.5L171.6,2.7L171.6,2.7z M171,1.4h1.2c0.4,0,0.7,0.1,0.9,0.2c0.2,0.1,0.3,0.4,0.3,0.8c0,0.3-0.1,0.5-0.2,0.6
		c-0.1,0.1-0.4,0.2-0.6,0.2l0.8,1.4h-0.6L172,3.2h-0.4v1.4H171L171,1.4L171,1.4L171,1.4z M170.1,3.9c0.1,0.3,0.3,0.5,0.5,0.7
		c0.2,0.2,0.4,0.4,0.7,0.5c0.3,0.1,0.5,0.2,0.8,0.2c0.3,0,0.6-0.1,0.8-0.2c0.3-0.1,0.5-0.3,0.7-0.5c0.2-0.2,0.4-0.5,0.5-0.7
		c0.1-0.3,0.2-0.6,0.2-0.9s-0.1-0.6-0.2-0.9c-0.1-0.3-0.3-0.5-0.5-0.7c-0.2-0.2-0.4-0.4-0.7-0.5c-0.3-0.1-0.5-0.2-0.8-0.2
		c-0.3,0-0.6,0.1-0.8,0.2c-0.3,0.1-0.5,0.3-0.7,0.5c-0.2,0.2-0.4,0.5-0.5,0.7C170,2.4,170,2.7,170,3C169.9,3.3,170,3.6,170.1,3.9
		 M169.4,1.8c0.2-0.4,0.4-0.7,0.6-0.9s0.6-0.5,0.9-0.6c0.4-0.1,0.7-0.2,1.1-0.2s0.8,0.1,1.1,0.2c0.4,0.1,0.7,0.3,0.9,0.6
		c0.3,0.3,0.5,0.6,0.6,0.9c0.2,0.4,0.2,0.8,0.2,1.2s-0.1,0.8-0.2,1.2c-0.1,0.4-0.4,0.7-0.6,0.9s-0.6,0.5-0.9,0.6
		c-0.4,0.1-0.7,0.2-1.1,0.2c-0.4,0-0.8-0.1-1.1-0.2c-0.4-0.1-0.7-0.3-0.9-0.6c-0.3-0.3-0.5-0.6-0.6-0.9c-0.1-0.4-0.2-0.8-0.2-1.2
		S169.2,2.2,169.4,1.8"/>
	<polygon class="st0" points="0,3.8 17.1,17.6 17.1,4.6 19.9,4.6 19.9,22.9 2.8,9.1 2.8,22.1 0,22.1 	"/>
	<path class="st0" d="M49.3,20.2h2.2c0.7,0,1.3,0,1.9-0.1c0.6-0.1,1.2-0.2,1.7-0.5c0.5-0.2,0.9-0.5,1.2-1c0.3-0.4,0.5-0.9,0.5-1.5
		c0-0.6-0.2-1.1-0.5-1.5c-0.4-0.4-0.8-0.7-1.4-0.9c-0.6-0.2-1.2-0.4-1.9-0.4c-0.7-0.1-1.3-0.1-2-0.1h-1.8L49.3,20.2L49.3,20.2z
		 M49.3,12.4H50c0.7,0,1.3,0,1.9-0.1c0.6-0.1,1.1-0.2,1.6-0.4c0.4-0.2,0.8-0.5,1.1-0.9c0.3-0.4,0.4-0.9,0.4-1.5
		c0-0.6-0.1-1.1-0.4-1.5c-0.2-0.4-0.6-0.7-1-0.9c-0.4-0.2-1-0.3-1.5-0.4c-0.6-0.1-1.2-0.1-1.9-0.1h-0.8L49.3,12.4L49.3,12.4
		L49.3,12.4z M46.4,4.6h2.8c1.1,0,2.1,0.1,3.1,0.2c1,0.1,1.9,0.4,2.7,0.7c0.8,0.4,1.4,0.8,1.9,1.5c0.5,0.6,0.7,1.4,0.7,2.4
		c0,0.3-0.1,0.6-0.2,1c-0.1,0.3-0.3,0.6-0.5,1c-0.2,0.3-0.5,0.6-0.8,0.8s-0.6,0.4-1,0.6v0c0.7,0.1,1.3,0.3,1.8,0.6
		c0.6,0.3,1,0.6,1.4,1c0.4,0.4,0.7,0.9,0.9,1.4c0.2,0.5,0.3,1,0.3,1.5c0,0.9-0.2,1.6-0.7,2.3c-0.4,0.6-1,1.1-1.8,1.5
		s-1.6,0.7-2.5,0.9c-0.9,0.2-1.9,0.3-2.9,0.3h-5.3L46.4,4.6L46.4,4.6z"/>
	<rect x="62.9" y="4.6" class="st0" width="2.8" height="17.5"/>
	<polygon class="st0" points="73,20.1 79.9,20.1 79.9,22.1 70.1,22.1 70.1,4.6 73,4.6 	"/>
	<path class="st0" d="M90.9,20.2h2.2c0.7,0,1.3,0,1.9-0.1c0.6-0.1,1.2-0.2,1.7-0.5c0.5-0.2,0.9-0.5,1.2-1c0.3-0.4,0.5-0.9,0.5-1.5
		c0-0.6-0.2-1.1-0.5-1.5c-0.4-0.4-0.8-0.7-1.4-0.9c-0.6-0.2-1.2-0.4-1.9-0.4c-0.7-0.1-1.3-0.1-2-0.1h-1.8L90.9,20.2L90.9,20.2
		L90.9,20.2z M90.9,12.4h0.7c0.7,0,1.3,0,1.9-0.1c0.6-0.1,1.1-0.2,1.6-0.4c0.4-0.2,0.8-0.5,1.1-0.9c0.3-0.4,0.4-0.9,0.4-1.5
		c0-0.6-0.1-1.1-0.4-1.5c-0.3-0.4-0.6-0.7-1-0.9c-0.4-0.2-1-0.3-1.5-0.4c-0.6-0.1-1.2-0.1-1.9-0.1h-0.8V12.4L90.9,12.4L90.9,12.4z
		 M88.1,4.6h2.8c1.1,0,2.1,0.1,3.1,0.2c1,0.1,1.9,0.4,2.7,0.7C97.4,5.9,98,6.4,98.5,7c0.5,0.6,0.7,1.4,0.7,2.4c0,0.3-0.1,0.6-0.2,1
		c-0.1,0.3-0.3,0.6-0.5,1c-0.2,0.3-0.5,0.6-0.8,0.8c-0.3,0.2-0.6,0.4-1,0.6v0c0.7,0.1,1.3,0.3,1.8,0.6c0.6,0.3,1,0.6,1.4,1
		c0.4,0.4,0.7,0.9,0.9,1.4c0.2,0.5,0.3,1,0.3,1.5c0,0.9-0.2,1.6-0.7,2.3c-0.4,0.6-1,1.1-1.8,1.5c-0.7,0.4-1.6,0.7-2.5,0.9
		c-0.9,0.2-1.9,0.3-2.9,0.3h-5.3V4.6L88.1,4.6z"/>
	<path class="st0" d="M113.1,8.7l-4,7.1h8.1L113.1,8.7z M107.9,17.8l-2.6,4.4h-3l10.9-18.2L124,22.1h-3l-2.6-4.4H107.9z"/>
	<polygon class="st0" points="125.7,3.8 142.8,17.6 142.8,4.6 145.7,4.6 145.7,22.9 128.6,9.1 128.6,22.1 125.7,22.1 	"/>
	<polygon class="st0" points="162.3,4.6 166,4.6 155.8,12.5 166.2,22.1 162.4,22.1 153.8,14 152.7,14.8 152.7,22.1 149.8,22.1 
		149.8,4.6 152.7,4.6 152.7,12.2 	"/>
	<g>
		<g>
			<path class="st1" d="M33.2,11.7c0,0-10.7,11-10.8,11.1c-0.1,0.1-0.2,0.2-0.3,0.1c-0.2-0.2,0-0.5,0-0.5l11.2-22l11.2,22
				c0,0,0.2,0.3,0,0.5c-0.1,0.1-0.2,0-0.3-0.1C44,22.7,33.2,11.7,33.2,11.7"/>
		</g>
		<g>
			<path class="st1" d="M33.2,11.7c0,0-10.7,11-10.8,11.1c-0.1,0.1-0.2,0.2-0.3,0.1c-0.2-0.2,0-0.5,0-0.5l11.2-22l11.2,22
				c0,0,0.2,0.3,0,0.5c-0.1,0.1-0.2,0-0.3-0.1C44,22.7,33.2,11.7,33.2,11.7"/>
		</g>
		<polygon class="st2" points="33.2,19.2 29.4,19.2 31.3,17.2 33.2,15.3 35.1,17.2 37.1,19.2 		"/>
		<polygon class="st3" points="33.2,18.4 29.4,19.2 31.3,17.2 33.2,15.3 35.1,17.2 37.1,19.2 		"/>
		<polygon class="st4" points="33.2,18.4 29.4,19.2 31.3,17.2 33.2,15.3 		"/>
		<g>
			<g>
				<g>
					<defs>
						<path id="SVGID_1_" d="M33.2,11.7c0,0-10.7,11-10.8,11.1c-0.1,0.1-0.2,0.2-0.3,0.1c-0.2-0.2,0-0.5,0-0.5l11.2-22l11.2,22
							c0,0,0.2,0.3,0,0.5c-0.1,0.1-0.2,0-0.3-0.1C44,22.7,33.2,11.7,33.2,11.7"/>
					</defs>
					<clipPath id="SVGID_00000032624130932089950300000011315139929020864914_">
						<use xlink:href="#SVGID_1_"  style="overflow:visible;"/>
					</clipPath>
					<polygon style="clip-path:url(#SVGID_00000032624130932089950300000011315139929020864914_);fill:#9C1E22;" points="33.2,6.7 
						21.9,23.2 33.2,12.2 					"/>
				</g>
			</g>
		</g>
		<g>
			<g>
				<g>
					<defs>
						<path id="SVGID_00000169521215741426999640000018035367925737183156_" d="M33.2,11.7c0,0-10.7,11-10.8,11.1
							c-0.1,0.1-0.2,0.2-0.3,0.1c-0.2-0.2,0-0.5,0-0.5l11.2-22l11.2,22c0,0,0.2,0.3,0,0.5c-0.1,0.1-0.2,0-0.3-0.1
							C44,22.7,33.2,11.7,33.2,11.7"/>
					</defs>
					<clipPath id="SVGID_00000001644977628198036480000008366945899734878371_">
						<use xlink:href="#SVGID_00000169521215741426999640000018035367925737183156_"  style="overflow:visible;"/>
					</clipPath>
					<polygon style="clip-path:url(#SVGID_00000001644977628198036480000008366945899734878371_);fill:#AB1F25;" points="33.2,6.7 
						33.2,0.4 44.8,23.2 44.5,23.3 					"/>
				</g>
			</g>
		</g>
	</g>
</g>
</svg>
