<svg width="76" height="25" viewBox="0 0 76 25" fill="none" xmlns="http://www.w3.org/2000/svg">
<rect x="0.756836" width="75.243" height="24.7066" rx="2.24606" fill="white"/>
<rect x="1.03759" y="0.280757" width="74.6814" height="24.1451" rx="1.9653" stroke="black" stroke-opacity="0.15" stroke-width="0.561515"/>
<path d="M20.0694 5.05371C19.4087 5.09698 18.6502 5.51176 18.1992 6.03997C17.7918 6.5204 17.4704 7.23392 17.6016 7.92421C18.3196 7.94552 19.0403 7.51999 19.4717 6.98209C19.8746 6.47906 20.18 5.77694 20.0694 5.05371ZM20.1085 7.92295C19.072 7.92295 18.6386 8.64058 17.9206 8.64058C17.1819 8.64058 16.5067 7.96836 15.6128 7.96836C14.3969 7.969 12.5485 9.2383 12.5485 12.2287C12.5485 14.9492 14.7361 17.9684 15.971 17.9684C16.721 17.9768 16.9029 17.437 17.9206 17.4312C18.9394 17.4228 19.1592 17.9756 19.9105 17.9684C20.7562 17.9613 21.4167 16.914 21.8992 16.0842C22.2453 15.4901 22.3876 15.1868 22.6558 14.5153C20.6657 13.947 20.2697 10.3305 22.6558 9.5827C22.2054 8.71676 20.8907 7.92295 20.1085 7.92295Z" fill="black"/>
<path d="M27.605 8.93066H26.4708V5.2553H27.6552C28.0117 5.2553 28.3168 5.32888 28.5705 5.47603C28.8241 5.622 29.0185 5.83197 29.1537 6.10594C29.2889 6.37872 29.3565 6.70534 29.3565 7.0858C29.3565 7.46865 29.2883 7.79826 29.1519 8.07463C29.0155 8.34981 28.8169 8.56157 28.5561 8.70993C28.2953 8.85708 27.9782 8.93066 27.605 8.93066ZM26.9158 8.53585H27.5762C27.8801 8.53585 28.132 8.47723 28.3318 8.35998C28.5316 8.24273 28.6805 8.07583 28.7786 7.85928C28.8767 7.64273 28.9258 7.3849 28.9258 7.0858C28.9258 6.78909 28.8773 6.53366 28.7804 6.3195C28.6835 6.10415 28.5388 5.93904 28.3461 5.82419C28.1535 5.70814 27.9136 5.65011 27.6265 5.65011H26.9158V8.53585ZM30.9128 8.98809C30.6639 8.98809 30.4456 8.92887 30.2578 8.81042C30.0711 8.69198 29.9252 8.52628 29.8199 8.31332C29.7158 8.10036 29.6637 7.8515 29.6637 7.56676C29.6637 7.27962 29.7158 7.02897 29.8199 6.81481C29.9252 6.60066 30.0711 6.43436 30.2578 6.31591C30.4456 6.19747 30.6639 6.13825 30.9128 6.13825C31.1616 6.13825 31.3794 6.19747 31.566 6.31591C31.7539 6.43436 31.8998 6.60066 32.0039 6.81481C32.1092 7.02897 32.1618 7.27962 32.1618 7.56676C32.1618 7.8515 32.1092 8.10036 32.0039 8.31332C31.8998 8.52628 31.7539 8.69198 31.566 8.81042C31.3794 8.92887 31.1616 8.98809 30.9128 8.98809ZM30.9128 8.60763C31.1018 8.60763 31.2574 8.55918 31.3794 8.46227C31.5014 8.36536 31.5917 8.23794 31.6504 8.08002C31.709 7.92209 31.7383 7.751 31.7383 7.56676C31.7383 7.38251 31.709 7.21083 31.6504 7.0517C31.5917 6.89258 31.5014 6.76397 31.3794 6.66586C31.2574 6.56776 31.1018 6.5187 30.9128 6.5187C30.7238 6.5187 30.5682 6.56776 30.4462 6.66586C30.3242 6.76397 30.2338 6.89258 30.1752 7.0517C30.1166 7.21083 30.0873 7.38251 30.0873 7.56676C30.0873 7.751 30.1166 7.92209 30.1752 8.08002C30.2338 8.23794 30.3242 8.36536 30.4462 8.46227C30.5682 8.55918 30.7238 8.60763 30.9128 8.60763ZM33.0864 8.93066L32.2465 6.17414H32.6916L33.2874 8.2846H33.3161L33.9048 6.17414H34.357L34.9385 8.27742H34.9672L35.563 6.17414H36.0081L35.1682 8.93066H34.7518L34.1488 6.81302H34.1058L33.5028 8.93066H33.0864ZM36.7388 7.27244V8.93066H36.3153V6.17414H36.7245V6.60485H36.7604C36.825 6.46487 36.9231 6.3524 37.0547 6.26746C37.1863 6.18132 37.3562 6.13825 37.5643 6.13825C37.751 6.13825 37.9143 6.17653 38.0543 6.2531C38.1943 6.32847 38.3031 6.44333 38.3809 6.59767C38.4587 6.75081 38.4975 6.94463 38.4975 7.17912V8.93066H38.074V7.20784C38.074 6.99129 38.0178 6.82259 37.9053 6.70175C37.7929 6.57972 37.6385 6.5187 37.4423 6.5187C37.3071 6.5187 37.1863 6.54802 37.0798 6.60664C36.9745 6.66526 36.8914 6.75081 36.8303 6.86327C36.7693 6.97573 36.7388 7.11212 36.7388 7.27244ZM39.4423 5.2553V8.93066H39.0188V5.2553H39.4423ZM41.0852 8.98809C40.8363 8.98809 40.618 8.92887 40.4302 8.81042C40.2435 8.69198 40.0976 8.52628 39.9923 8.31332C39.8882 8.10036 39.8361 7.8515 39.8361 7.56676C39.8361 7.27962 39.8882 7.02897 39.9923 6.81481C40.0976 6.60066 40.2435 6.43436 40.4302 6.31591C40.618 6.19747 40.8363 6.13825 41.0852 6.13825C41.334 6.13825 41.5518 6.19747 41.7384 6.31591C41.9263 6.43436 42.0722 6.60066 42.1763 6.81481C42.2816 7.02897 42.3342 7.27962 42.3342 7.56676C42.3342 7.8515 42.2816 8.10036 42.1763 8.31332C42.0722 8.52628 41.9263 8.69198 41.7384 8.81042C41.5518 8.92887 41.334 8.98809 41.0852 8.98809ZM41.0852 8.60763C41.2742 8.60763 41.4298 8.55918 41.5518 8.46227C41.6738 8.36536 41.7642 8.23794 41.8228 8.08002C41.8814 7.92209 41.9107 7.751 41.9107 7.56676C41.9107 7.38251 41.8814 7.21083 41.8228 7.0517C41.7642 6.89258 41.6738 6.76397 41.5518 6.66586C41.4298 6.56776 41.2742 6.5187 41.0852 6.5187C40.8962 6.5187 40.7406 6.56776 40.6186 6.66586C40.4966 6.76397 40.4062 6.89258 40.3476 7.0517C40.289 7.21083 40.2597 7.38251 40.2597 7.56676C40.2597 7.751 40.289 7.92209 40.3476 8.08002C40.4062 8.23794 40.4966 8.36536 40.6186 8.46227C40.7406 8.55918 40.8962 8.60763 41.0852 8.60763ZM43.5392 8.99527C43.3646 8.99527 43.206 8.96237 43.0637 8.89657C42.9213 8.82957 42.8082 8.73326 42.7245 8.60763C42.6407 8.48081 42.5989 8.32767 42.5989 8.14821C42.5989 7.99029 42.63 7.86227 42.6922 7.76417C42.7544 7.66486 42.8375 7.5871 42.9416 7.53087C43.0457 7.47463 43.1606 7.43276 43.2862 7.40524C43.413 7.37653 43.5404 7.3538 43.6684 7.33705C43.8359 7.31551 43.9717 7.29936 44.0758 7.28859C44.1811 7.27663 44.2577 7.25689 44.3055 7.22937C44.3546 7.20185 44.3791 7.154 44.3791 7.0858V7.07144C44.3791 6.89438 44.3307 6.75679 44.2338 6.65868C44.138 6.56058 43.9927 6.51153 43.7977 6.51153C43.5955 6.51153 43.4369 6.55579 43.3221 6.64433C43.2072 6.73286 43.1265 6.82738 43.0798 6.92788L42.6778 6.78431C42.7496 6.61681 42.8453 6.4864 42.965 6.39308C43.0858 6.29856 43.2174 6.23276 43.3598 6.19567C43.5033 6.15739 43.6445 6.13825 43.7833 6.13825C43.8718 6.13825 43.9735 6.14901 44.0884 6.17055C44.2044 6.19089 44.3163 6.23336 44.424 6.29797C44.5329 6.36257 44.6232 6.46008 44.695 6.59049C44.7668 6.7209 44.8026 6.89557 44.8026 7.11452V8.93066H44.3791V8.55738H44.3576C44.3289 8.6172 44.281 8.68121 44.214 8.74941C44.147 8.8176 44.0579 8.87563 43.9466 8.92349C43.8353 8.97134 43.6996 8.99527 43.5392 8.99527ZM43.6038 8.61481C43.7713 8.61481 43.9125 8.58191 44.0274 8.51611C44.1434 8.45031 44.2308 8.36536 44.2894 8.26127C44.3492 8.15719 44.3791 8.04771 44.3791 7.93286V7.54522C44.3612 7.56676 44.3217 7.5865 44.2607 7.60444C44.2009 7.62119 44.1315 7.63615 44.0525 7.64931C43.9747 7.66127 43.8988 7.67204 43.8246 7.68161C43.7516 7.68999 43.6924 7.69717 43.6469 7.70315C43.5368 7.71751 43.434 7.74084 43.3382 7.77314C43.2437 7.80425 43.1672 7.8515 43.1085 7.91491C43.0511 7.97713 43.0224 8.06207 43.0224 8.16975C43.0224 8.31691 43.0768 8.42817 43.1857 8.50355C43.2958 8.57772 43.4351 8.61481 43.6038 8.61481ZM46.3639 8.98809C46.1342 8.98809 45.9314 8.93007 45.7555 8.81401C45.5796 8.69677 45.442 8.53166 45.3427 8.3187C45.2434 8.10454 45.1938 7.8515 45.1938 7.55958C45.1938 7.27005 45.2434 7.0188 45.3427 6.80584C45.442 6.59288 45.5802 6.42837 45.7573 6.31232C45.9344 6.19627 46.1389 6.13825 46.371 6.13825C46.5505 6.13825 46.6923 6.16816 46.7964 6.22798C46.9017 6.2866 46.9818 6.3536 47.0368 6.42897C47.0931 6.50315 47.1367 6.56417 47.1679 6.61202H47.2037V5.2553H47.6273V8.93066H47.2181V8.50714H47.1679C47.1367 8.55738 47.0925 8.62079 47.0351 8.69736C46.9776 8.77274 46.8957 8.84034 46.7892 8.90016C46.6827 8.95878 46.5409 8.98809 46.3639 8.98809ZM46.4213 8.60763C46.5912 8.60763 46.7348 8.56337 46.852 8.47483C46.9693 8.3851 47.0584 8.26127 47.1194 8.10335C47.1804 7.94422 47.2109 7.76058 47.2109 7.5524C47.2109 7.34662 47.181 7.16656 47.1212 7.01222C47.0614 6.85669 46.9728 6.73585 46.8556 6.64971C46.7383 6.56237 46.5936 6.5187 46.4213 6.5187C46.2418 6.5187 46.0923 6.56477 45.9726 6.65689C45.8542 6.74782 45.7651 6.87164 45.7052 7.02837C45.6466 7.18391 45.6173 7.35858 45.6173 7.5524C45.6173 7.74861 45.6472 7.92688 45.707 8.0872C45.7681 8.24632 45.8578 8.37314 45.9762 8.46765C46.0959 8.56097 46.2442 8.60763 46.4213 8.60763ZM50.4976 8.98809C50.2487 8.98809 50.0304 8.92887 49.8425 8.81042C49.6559 8.69198 49.5099 8.52628 49.4047 8.31332C49.3006 8.10036 49.2485 7.8515 49.2485 7.56676C49.2485 7.27962 49.3006 7.02897 49.4047 6.81481C49.5099 6.60066 49.6559 6.43436 49.8425 6.31591C50.0304 6.19747 50.2487 6.13825 50.4976 6.13825C50.7464 6.13825 50.9642 6.19747 51.1508 6.31591C51.3387 6.43436 51.4846 6.60066 51.5887 6.81481C51.694 7.02897 51.7466 7.27962 51.7466 7.56676C51.7466 7.8515 51.694 8.10036 51.5887 8.31332C51.4846 8.52628 51.3387 8.69198 51.1508 8.81042C50.9642 8.92887 50.7464 8.98809 50.4976 8.98809ZM50.4976 8.60763C50.6866 8.60763 50.8421 8.55918 50.9642 8.46227C51.0862 8.36536 51.1765 8.23794 51.2352 8.08002C51.2938 7.92209 51.3231 7.751 51.3231 7.56676C51.3231 7.38251 51.2938 7.21083 51.2352 7.0517C51.1765 6.89258 51.0862 6.76397 50.9642 6.66586C50.8421 6.56776 50.6866 6.5187 50.4976 6.5187C50.3085 6.5187 50.153 6.56776 50.031 6.66586C49.9089 6.76397 49.8186 6.89258 49.76 7.0517C49.7014 7.21083 49.6721 7.38251 49.6721 7.56676C49.6721 7.751 49.7014 7.92209 49.76 8.08002C49.8186 8.23794 49.9089 8.36536 50.031 8.46227C50.153 8.55918 50.3085 8.60763 50.4976 8.60763ZM52.564 7.27244V8.93066H52.1405V6.17414H52.5496V6.60485H52.5855C52.6501 6.46487 52.7482 6.3524 52.8798 6.26746C53.0114 6.18132 53.1813 6.13825 53.3895 6.13825C53.5761 6.13825 53.7395 6.17653 53.8794 6.2531C54.0194 6.32847 54.1283 6.44333 54.2061 6.59767C54.2838 6.75081 54.3227 6.94463 54.3227 7.17912V8.93066H53.8992V7.20784C53.8992 6.99129 53.8429 6.82259 53.7305 6.70175C53.618 6.57972 53.4637 6.5187 53.2675 6.5187C53.1323 6.5187 53.0114 6.54802 52.905 6.60664C52.7997 6.66526 52.7165 6.75081 52.6555 6.86327C52.5945 6.97573 52.564 7.11212 52.564 7.27244ZM57.2114 6.17414V6.53306H55.7829V6.17414H57.2114ZM56.1992 5.51372H56.6228V8.14103C56.6228 8.26068 56.6401 8.35041 56.6748 8.41023C56.7107 8.46885 56.7562 8.50833 56.8112 8.52867C56.8674 8.54781 56.9267 8.55738 56.9889 8.55738C57.0355 8.55738 57.0738 8.55499 57.1037 8.55021C57.1336 8.54422 57.1576 8.53944 57.1755 8.53585L57.2617 8.91631C57.2329 8.92707 57.1929 8.93784 57.1414 8.94861C57.09 8.96057 57.0248 8.96656 56.9458 8.96656C56.8262 8.96656 56.7089 8.94083 56.5941 8.88939C56.4804 8.83794 56.3859 8.75958 56.3105 8.65429C56.2363 8.54901 56.1992 8.41621 56.1992 8.25589V5.51372ZM58.0786 7.27244V8.93066H57.655V5.2553H58.0786V6.60485H58.1145C58.1791 6.46247 58.276 6.34941 58.4052 6.26566C58.5356 6.18072 58.7091 6.13825 58.9256 6.13825C59.1135 6.13825 59.278 6.17593 59.4191 6.25131C59.5603 6.32548 59.6698 6.43974 59.7476 6.59408C59.8265 6.74722 59.866 6.94223 59.866 7.17912V8.93066H59.4425V7.20784C59.4425 6.98889 59.3856 6.8196 59.272 6.69996C59.1595 6.57912 59.0034 6.5187 58.8036 6.5187C58.6648 6.5187 58.5404 6.54802 58.4303 6.60664C58.3214 6.66526 58.2353 6.75081 58.1719 6.86327C58.1097 6.97573 58.0786 7.11212 58.0786 7.27244ZM61.5439 8.98809C61.2783 8.98809 61.0492 8.92947 60.8565 8.81222C60.6651 8.69378 60.5174 8.52867 60.4133 8.31691C60.3104 8.10395 60.2589 7.85629 60.2589 7.57394C60.2589 7.29158 60.3104 7.04273 60.4133 6.82738C60.5174 6.61083 60.6621 6.44213 60.8476 6.3213C61.0342 6.19926 61.252 6.13825 61.5008 6.13825C61.6444 6.13825 61.7861 6.16217 61.9261 6.21003C62.0661 6.25789 62.1935 6.33565 62.3084 6.44333C62.4232 6.54981 62.5148 6.69099 62.583 6.86686C62.6512 7.04273 62.6852 7.25928 62.6852 7.51651V7.69597H60.5604V7.32987H62.2545C62.2545 7.17434 62.2234 7.03555 62.1612 6.91352C62.1002 6.79148 62.0129 6.69517 61.8992 6.62459C61.7867 6.554 61.6539 6.5187 61.5008 6.5187C61.3321 6.5187 61.1861 6.56058 61.0629 6.64433C60.9409 6.72688 60.847 6.83456 60.7812 6.96736C60.7154 7.10016 60.6825 7.24253 60.6825 7.39448V7.63854C60.6825 7.84672 60.7184 8.02319 60.7901 8.16795C60.8631 8.31152 60.9642 8.42099 61.0934 8.49637C61.2226 8.57055 61.3728 8.60763 61.5439 8.60763C61.6551 8.60763 61.7556 8.59208 61.8454 8.56097C61.9363 8.52867 62.0147 8.48081 62.0805 8.4174C62.1463 8.3528 62.1971 8.27264 62.233 8.17693L62.6422 8.29178C62.5991 8.43057 62.5267 8.5526 62.425 8.65788C62.3233 8.76197 62.1977 8.84333 62.0482 8.90195C61.8986 8.95938 61.7305 8.98809 61.5439 8.98809Z" fill="black"/>
<path d="M27.4165 18.1074H26.2321L28.3886 11.9818H29.7585L31.918 18.1074H30.7336L29.0975 13.238H29.0496L27.4165 18.1074ZM27.4554 15.7056H30.6857V16.597H27.4554V15.7056ZM32.3401 19.8303V13.5132H33.4049V14.2729H33.4677C33.5235 14.1613 33.6023 14.0426 33.704 13.917C33.8057 13.7894 33.9433 13.6807 34.1167 13.591C34.2902 13.4993 34.5116 13.4534 34.7807 13.4534C35.1357 13.4534 35.4557 13.5441 35.7409 13.7256C36.028 13.905 36.2553 14.1712 36.4228 14.5242C36.5923 14.8751 36.6771 15.3058 36.6771 15.8163C36.6771 16.3208 36.5943 16.7495 36.4288 17.1024C36.2633 17.4554 36.038 17.7246 35.7528 17.91C35.4677 18.0955 35.1447 18.1882 34.7837 18.1882C34.5205 18.1882 34.3022 18.1443 34.1287 18.0566C33.9552 17.9688 33.8156 17.8632 33.71 17.7395C33.6063 17.6139 33.5255 17.4953 33.4677 17.3836H33.4228V19.8303H32.3401ZM33.4019 15.8103C33.4019 16.1074 33.4438 16.3676 33.5275 16.591C33.6133 16.8143 33.7359 16.9888 33.8954 17.1144C34.0569 17.238 34.2523 17.2998 34.4816 17.2998C34.7209 17.2998 34.9213 17.236 35.0828 17.1084C35.2444 16.9788 35.366 16.8023 35.4477 16.579C35.5315 16.3537 35.5734 16.0975 35.5734 15.8103C35.5734 15.5252 35.5325 15.2719 35.4507 15.0506C35.369 14.8293 35.2473 14.6558 35.0858 14.5302C34.9243 14.4045 34.7229 14.3417 34.4816 14.3417C34.2503 14.3417 34.0539 14.4025 33.8924 14.5242C33.7309 14.6458 33.6083 14.8163 33.5245 15.0356C33.4428 15.255 33.4019 15.5132 33.4019 15.8103ZM37.2674 19.8303V13.5132H38.3322V14.2729H38.395C38.4508 14.1613 38.5296 14.0426 38.6313 13.917C38.733 13.7894 38.8705 13.6807 39.044 13.591C39.2175 13.4993 39.4388 13.4534 39.708 13.4534C40.063 13.4534 40.383 13.5441 40.6682 13.7256C40.9553 13.905 41.1826 14.1712 41.3501 14.5242C41.5196 14.8751 41.6043 15.3058 41.6043 15.8163C41.6043 16.3208 41.5216 16.7495 41.3561 17.1024C41.1906 17.4554 40.9653 17.7246 40.6801 17.91C40.395 18.0955 40.0719 18.1882 39.711 18.1882C39.4478 18.1882 39.2295 18.1443 39.056 18.0566C38.8825 17.9688 38.7429 17.8632 38.6373 17.7395C38.5336 17.6139 38.4528 17.4953 38.395 17.3836H38.3501V19.8303H37.2674ZM38.3292 15.8103C38.3292 16.1074 38.371 16.3676 38.4548 16.591C38.5405 16.8143 38.6632 16.9888 38.8227 17.1144C38.9842 17.238 39.1796 17.2998 39.4089 17.2998C39.6482 17.2998 39.8486 17.236 40.0101 17.1084C40.1716 16.9788 40.2933 16.8023 40.375 16.579C40.4588 16.3537 40.5007 16.0975 40.5007 15.8103C40.5007 15.5252 40.4598 15.2719 40.378 15.0506C40.2963 14.8293 40.1746 14.6558 40.0131 14.5302C39.8516 14.4045 39.6502 14.3417 39.4089 14.3417C39.1776 14.3417 38.9812 14.4025 38.8197 14.5242C38.6582 14.6458 38.5356 14.8163 38.4518 15.0356C38.3701 15.255 38.3292 15.5132 38.3292 15.8103ZM47.3238 13.6658C47.2959 13.4045 47.1783 13.2011 46.9709 13.0556C46.7655 12.91 46.4983 12.8372 46.1693 12.8372C45.938 12.8372 45.7396 12.8721 45.5741 12.9419C45.4086 13.0117 45.282 13.1064 45.1942 13.2261C45.1065 13.3457 45.0616 13.4823 45.0596 13.6358C45.0596 13.7635 45.0885 13.8741 45.1464 13.9678C45.2062 14.0616 45.287 14.1413 45.3886 14.2071C45.4903 14.2709 45.603 14.3248 45.7266 14.3686C45.8503 14.4125 45.9749 14.4494 46.1005 14.4793L46.6748 14.6229C46.9061 14.6767 47.1284 14.7495 47.3418 14.8412C47.5571 14.933 47.7496 15.0486 47.919 15.1882C48.0905 15.3278 48.2261 15.4963 48.3258 15.6937C48.4255 15.8911 48.4754 16.1224 48.4754 16.3876C48.4754 16.7465 48.3837 17.0626 48.2002 17.3357C48.0168 17.6069 47.7516 17.8193 47.4046 17.9728C47.0596 18.1244 46.6419 18.2001 46.1514 18.2001C45.6748 18.2001 45.261 18.1264 44.9101 17.9788C44.5611 17.8313 44.2879 17.6159 44.0905 17.3327C43.8951 17.0496 43.7894 16.7046 43.7735 16.2979H44.8652C44.8812 16.5112 44.947 16.6887 45.0626 16.8303C45.1783 16.9718 45.3288 17.0775 45.5143 17.1473C45.7017 17.2171 45.9111 17.252 46.1424 17.252C46.3837 17.252 46.595 17.2161 46.7765 17.1443C46.9599 17.0705 47.1035 16.9688 47.2072 16.8392C47.3109 16.7076 47.3637 16.5541 47.3657 16.3786C47.3637 16.2191 47.3169 16.0875 47.2251 15.9838C47.1334 15.8781 47.0048 15.7904 46.8393 15.7206C46.6758 15.6488 46.4844 15.585 46.265 15.5292L45.5681 15.3497C45.0636 15.2201 44.6648 15.0237 44.3717 14.7605C44.0806 14.4953 43.935 14.1433 43.935 13.7046C43.935 13.3437 44.0327 13.0277 44.2281 12.7565C44.4255 12.4853 44.6937 12.2749 45.0327 12.1254C45.3717 11.9738 45.7555 11.8981 46.1843 11.8981C46.619 11.8981 46.9998 11.9738 47.3268 12.1254C47.6558 12.2749 47.9141 12.4833 48.1015 12.7505C48.2889 13.0157 48.3856 13.3208 48.3916 13.6658H47.3238ZM51.374 13.5132V14.3507H48.7329V13.5132H51.374ZM49.385 12.4125H50.4677V16.7256C50.4677 16.8711 50.4897 16.9828 50.5335 17.0606C50.5794 17.1363 50.6392 17.1882 50.713 17.2161C50.7868 17.244 50.8685 17.258 50.9583 17.258C51.0261 17.258 51.0879 17.253 51.1437 17.243C51.2015 17.233 51.2454 17.2241 51.2753 17.2161L51.4578 18.0626C51.3999 18.0825 51.3172 18.1044 51.2095 18.1284C51.1038 18.1523 50.9742 18.1662 50.8207 18.1702C50.5495 18.1782 50.3052 18.1373 50.0879 18.0476C49.8705 17.9559 49.698 17.8143 49.5704 17.6229C49.4448 17.4315 49.383 17.1922 49.385 16.905V12.4125ZM53.8973 18.1972C53.4486 18.1972 53.0598 18.0984 52.7308 17.901C52.4018 17.7036 52.1465 17.4275 51.9651 17.0725C51.7856 16.7176 51.6959 16.3028 51.6959 15.8283C51.6959 15.3537 51.7856 14.9379 51.9651 14.581C52.1465 14.2241 52.4018 13.9469 52.7308 13.7495C53.0598 13.5521 53.4486 13.4534 53.8973 13.4534C54.3459 13.4534 54.7348 13.5521 55.0638 13.7495C55.3928 13.9469 55.647 14.2241 55.8265 14.581C56.0079 14.9379 56.0987 15.3537 56.0987 15.8283C56.0987 16.3028 56.0079 16.7176 55.8265 17.0725C55.647 17.4275 55.3928 17.7036 55.0638 17.901C54.7348 18.0984 54.3459 18.1972 53.8973 18.1972ZM53.9032 17.3298C54.1465 17.3298 54.3499 17.263 54.5134 17.1294C54.6769 16.9938 54.7986 16.8123 54.8783 16.585C54.9601 16.3577 55.001 16.1044 55.001 15.8253C55.001 15.5441 54.9601 15.2899 54.8783 15.0626C54.7986 14.8332 54.6769 14.6508 54.5134 14.5152C54.3499 14.3796 54.1465 14.3118 53.9032 14.3118C53.654 14.3118 53.4466 14.3796 53.2811 14.5152C53.1176 14.6508 52.995 14.8332 52.9132 15.0626C52.8335 15.2899 52.7936 15.5441 52.7936 15.8253C52.7936 16.1044 52.8335 16.3577 52.9132 16.585C52.995 16.8123 53.1176 16.9938 53.2811 17.1294C53.4466 17.263 53.654 17.3298 53.9032 17.3298ZM56.6807 18.1074V13.5132H57.7306V14.2789H57.7784C57.8622 14.0137 58.0058 13.8093 58.2092 13.6658C58.4145 13.5202 58.6488 13.4474 58.912 13.4474C58.9719 13.4474 59.0387 13.4504 59.1124 13.4564C59.1882 13.4604 59.251 13.4673 59.3009 13.4773V14.4733C59.255 14.4574 59.1822 14.4434 59.0825 14.4315C58.9848 14.4175 58.8901 14.4105 58.7984 14.4105C58.601 14.4105 58.4235 14.4534 58.266 14.5391C58.1104 14.6229 57.9878 14.7395 57.8981 14.8891C57.8084 15.0386 57.7635 15.2111 57.7635 15.4065V18.1074H56.6807ZM61.528 18.1972C61.0674 18.1972 60.6696 18.1014 60.3346 17.91C60.0016 17.7166 59.7454 17.4434 59.5659 17.0905C59.3865 16.7355 59.2967 16.3178 59.2967 15.8372C59.2967 15.3647 59.3865 14.9499 59.5659 14.593C59.7474 14.234 60.0006 13.9549 60.3256 13.7555C60.6507 13.5541 61.0325 13.4534 61.4712 13.4534C61.7543 13.4534 62.0215 13.4993 62.2728 13.591C62.526 13.6807 62.7494 13.8203 62.9428 14.0097C63.1382 14.1992 63.2917 14.4404 63.4034 14.7335C63.5151 15.0247 63.5709 15.3716 63.5709 15.7744V16.1064H59.8052V15.3766H62.533C62.531 15.1692 62.4861 14.9848 62.3984 14.8233C62.3107 14.6598 62.188 14.5312 62.0305 14.4374C61.875 14.3437 61.6935 14.2969 61.4861 14.2969C61.2648 14.2969 61.0704 14.3507 60.9029 14.4584C60.7354 14.5641 60.6048 14.7036 60.5111 14.8771C60.4194 15.0486 60.3725 15.237 60.3705 15.4424V16.0795C60.3705 16.3467 60.4194 16.576 60.5171 16.7674C60.6148 16.9569 60.7514 17.1024 60.9268 17.2041C61.1023 17.3038 61.3077 17.3537 61.543 17.3537C61.7005 17.3537 61.8431 17.3318 61.9707 17.2879C62.0983 17.242 62.209 17.1752 62.3027 17.0875C62.3964 16.9997 62.4672 16.8911 62.5151 16.7615L63.526 16.8751C63.4622 17.1423 63.3406 17.3756 63.1611 17.575C62.9837 17.7724 62.7563 17.926 62.4792 18.0356C62.202 18.1433 61.885 18.1972 61.528 18.1972Z" fill="black"/>
</svg>
