<svg width="76" height="25" viewBox="0 0 76 25" fill="none" xmlns="http://www.w3.org/2000/svg">
<rect width="75.243" height="24.7066" rx="2.24606" fill="white"/>
<rect x="0.280757" y="0.280757" width="74.6814" height="24.1451" rx="1.9653" stroke="black" stroke-opacity="0.15" stroke-width="0.561515"/>
<path d="M8.00941 3.93066L13.99 10.1587L15.7582 8.31789C12.7113 6.59449 8.68177 4.31465 8.00941 3.93066ZM6.28268 4.32492C6.21818 4.47518 6.17596 4.64004 6.17596 4.82293V17.7904C6.17596 17.9399 6.20964 18.0779 6.25897 18.2069L12.9376 11.2541L6.28268 4.32492ZM17.1218 9.0901L15.0423 11.2541L17.1055 13.4032C18.372 12.6861 19.2487 12.1893 19.2487 12.1893C19.6274 11.9594 19.8395 11.6055 19.8342 11.22C19.8289 10.8443 19.61 10.4978 19.2472 10.2921C19.1979 10.2641 18.3421 9.77991 17.1218 9.0901ZM13.99 12.3509L8.05387 18.53C9.07607 17.9487 12.8521 15.8101 15.7419 14.1739L13.99 12.3509Z" fill="black"/>
<path d="M26.3078 7.12309C26.2639 6.98883 26.2061 6.86852 26.1343 6.76217C26.0639 6.6545 25.9795 6.56277 25.8811 6.487C25.784 6.41123 25.6737 6.3534 25.5501 6.31352C25.4264 6.27364 25.2909 6.2537 25.1433 6.2537C24.9014 6.2537 24.6814 6.31618 24.4833 6.44114C24.2852 6.5661 24.1277 6.75021 24.0107 6.99348C23.8937 7.23675 23.8352 7.53519 23.8352 7.88879C23.8352 8.2424 23.8944 8.54084 24.0127 8.78411C24.131 9.02738 24.2912 9.21149 24.4933 9.33645C24.6953 9.46141 24.9226 9.52388 25.1752 9.52388C25.4092 9.52388 25.6152 9.47403 25.7933 9.37433C25.9728 9.2733 26.1124 9.13106 26.2121 8.94761C26.3131 8.76284 26.3636 8.54549 26.3636 8.29557L26.5152 8.32748H25.2869V7.88879H26.8422V8.32748C26.8422 8.6638 26.7704 8.95626 26.6268 9.20484C26.4846 9.45343 26.2879 9.64618 26.0366 9.78311C25.7867 9.9187 25.4996 9.9865 25.1752 9.9865C24.8136 9.9865 24.4959 9.90142 24.2221 9.73126C23.9495 9.56111 23.7369 9.31917 23.584 9.00544C23.4324 8.69172 23.3567 8.3195 23.3567 7.88879C23.3567 7.56576 23.3999 7.2753 23.4863 7.01741C23.574 6.75819 23.6976 6.53752 23.8572 6.3554C24.0167 6.17328 24.2054 6.03369 24.4235 5.93665C24.6415 5.83961 24.8814 5.79109 25.1433 5.79109C25.3587 5.79109 25.5594 5.82366 25.7455 5.8888C25.9329 5.9526 26.0998 6.04366 26.246 6.16198C26.3935 6.27896 26.5165 6.4192 26.6149 6.58271C26.7133 6.74489 26.7811 6.92502 26.8183 7.12309H26.3078ZM27.0715 9.93066V5.84692H29.5361V6.2856H27.566V7.66546H29.4085V8.10415H27.566V9.49198H29.568V9.93066H27.0715ZM29.5864 6.2856V5.84692H32.6492V6.2856H31.3651V9.93066H30.8706V6.2856H29.5864ZM34.2509 5.84692V9.93066H33.7564V5.84692H34.2509ZM34.4014 6.2856V5.84692H37.4642V6.2856H36.1801V9.93066H35.6856V6.2856H34.4014ZM42.017 7.88879C42.017 8.3195 41.9392 8.69172 41.7837 9.00544C41.6282 9.31917 41.4148 9.56111 41.1436 9.73126C40.8724 9.90142 40.5627 9.9865 40.2144 9.9865C39.8661 9.9865 39.5564 9.90142 39.2852 9.73126C39.014 9.56111 38.8007 9.31917 38.6451 9.00544C38.4896 8.69172 38.4118 8.3195 38.4118 7.88879C38.4118 7.45809 38.4896 7.08587 38.6451 6.77214C38.8007 6.45842 39.014 6.21648 39.2852 6.04632C39.5564 5.87617 39.8661 5.79109 40.2144 5.79109C40.5627 5.79109 40.8724 5.87617 41.1436 6.04632C41.4148 6.21648 41.6282 6.45842 41.7837 6.77214C41.9392 7.08587 42.017 7.45809 42.017 7.88879ZM41.5385 7.88879C41.5385 7.53519 41.4793 7.23675 41.361 6.99348C41.244 6.75021 41.0851 6.5661 40.8844 6.44114C40.685 6.31618 40.4617 6.2537 40.2144 6.2537C39.9672 6.2537 39.7432 6.31618 39.5424 6.44114C39.343 6.5661 39.1842 6.75021 39.0659 6.99348C38.9489 7.23675 38.8904 7.53519 38.8904 7.88879C38.8904 8.2424 38.9489 8.54084 39.0659 8.78411C39.1842 9.02738 39.343 9.21149 39.5424 9.33645C39.7432 9.46141 39.9672 9.52388 40.2144 9.52388C40.4617 9.52388 40.685 9.46141 40.8844 9.33645C41.0851 9.21149 41.244 9.02738 41.361 8.78411C41.4793 8.54084 41.5385 8.2424 41.5385 7.88879ZM45.4691 5.84692V9.93066H44.9906L42.7652 6.72429H42.7254V9.93066H42.2309V5.84692H42.7094L44.9427 9.06127H44.9826V5.84692H45.4691Z" fill="black"/>
<path d="M27.7295 14.4992C27.6797 14.3377 27.6109 14.1931 27.5232 14.0655C27.4374 13.9359 27.3337 13.8252 27.2121 13.7335C27.0924 13.6418 26.9549 13.573 26.7993 13.5271C26.6438 13.4793 26.4743 13.4553 26.2909 13.4553C25.9618 13.4553 25.6687 13.5381 25.4115 13.7036C25.1543 13.8691 24.9519 14.1124 24.8043 14.4334C24.6588 14.7525 24.586 15.1413 24.586 15.5999C24.586 16.0625 24.6588 16.4543 24.8043 16.7754C24.9499 17.0964 25.1523 17.3407 25.4115 17.5082C25.6707 17.6737 25.9718 17.7564 26.3148 17.7564C26.6258 17.7564 26.895 17.6966 27.1224 17.577C27.3517 17.4573 27.5281 17.2878 27.6518 17.0685C27.7754 16.8472 27.8372 16.5879 27.8372 16.2908L28.0885 16.3297H26.4255V15.4623H28.911V16.1981C28.911 16.7225 28.7993 17.1762 28.576 17.559C28.3527 17.9419 28.0456 18.237 27.6548 18.4444C27.2639 18.6498 26.8153 18.7524 26.3088 18.7524C25.7445 18.7524 25.249 18.6258 24.8223 18.3726C24.3975 18.1174 24.0655 17.7554 23.8263 17.2868C23.589 16.8163 23.4703 16.2579 23.4703 15.6119C23.4703 15.1174 23.5401 14.6757 23.6797 14.2869C23.8213 13.898 24.0187 13.568 24.2719 13.2968C24.5252 13.0236 24.8223 12.8163 25.1632 12.6747C25.5042 12.5311 25.8751 12.4593 26.2759 12.4593C26.6149 12.4593 26.9309 12.5092 27.2241 12.6089C27.5172 12.7066 27.7774 12.8462 28.0047 13.0276C28.234 13.2091 28.4225 13.4244 28.57 13.6737C28.7176 13.9229 28.8143 14.1981 28.8601 14.4992H27.7295ZM31.6032 18.7584C31.1546 18.7584 30.7658 18.6597 30.4367 18.4623C30.1077 18.2649 29.8525 17.9887 29.671 17.6338C29.4916 17.2789 29.4018 16.8641 29.4018 16.3895C29.4018 15.915 29.4916 15.4992 29.671 15.1423C29.8525 14.7854 30.1077 14.5082 30.4367 14.3108C30.7658 14.1134 31.1546 14.0147 31.6032 14.0147C32.0519 14.0147 32.4407 14.1134 32.7697 14.3108C33.0987 14.5082 33.353 14.7854 33.5324 15.1423C33.7139 15.4992 33.8046 15.915 33.8046 16.3895C33.8046 16.8641 33.7139 17.2789 33.5324 17.6338C33.353 17.9887 33.0987 18.2649 32.7697 18.4623C32.4407 18.6597 32.0519 18.7584 31.6032 18.7584ZM31.6092 17.891C31.8525 17.891 32.0559 17.8242 32.2194 17.6906C32.3829 17.555 32.5045 17.3736 32.5843 17.1463C32.666 16.919 32.7069 16.6657 32.7069 16.3866C32.7069 16.1054 32.666 15.8512 32.5843 15.6238C32.5045 15.3945 32.3829 15.2121 32.2194 15.0765C32.0559 14.9409 31.8525 14.8731 31.6092 14.8731C31.36 14.8731 31.1526 14.9409 30.9871 15.0765C30.8236 15.2121 30.7009 15.3945 30.6192 15.6238C30.5394 15.8512 30.4996 16.1054 30.4996 16.3866C30.4996 16.6657 30.5394 16.919 30.6192 17.1463C30.7009 17.3736 30.8236 17.555 30.9871 17.6906C31.1526 17.8242 31.36 17.891 31.6092 17.891ZM36.3907 18.7584C35.942 18.7584 35.5532 18.6597 35.2242 18.4623C34.8952 18.2649 34.64 17.9887 34.4585 17.6338C34.279 17.2789 34.1893 16.8641 34.1893 16.3895C34.1893 15.915 34.279 15.4992 34.4585 15.1423C34.64 14.7854 34.8952 14.5082 35.2242 14.3108C35.5532 14.1134 35.942 14.0147 36.3907 14.0147C36.8394 14.0147 37.2282 14.1134 37.5572 14.3108C37.8862 14.5082 38.1404 14.7854 38.3199 15.1423C38.5014 15.4992 38.5921 15.915 38.5921 16.3895C38.5921 16.8641 38.5014 17.2789 38.3199 17.6338C38.1404 17.9887 37.8862 18.2649 37.5572 18.4623C37.2282 18.6597 36.8394 18.7584 36.3907 18.7584ZM36.3967 17.891C36.64 17.891 36.8433 17.8242 37.0068 17.6906C37.1704 17.555 37.292 17.3736 37.3718 17.1463C37.4535 16.919 37.4944 16.6657 37.4944 16.3866C37.4944 16.1054 37.4535 15.8512 37.3718 15.6238C37.292 15.3945 37.1704 15.2121 37.0068 15.0765C36.8433 14.9409 36.64 14.8731 36.3967 14.8731C36.1474 14.8731 35.9401 14.9409 35.7745 15.0765C35.611 15.2121 35.4884 15.3945 35.4067 15.6238C35.3269 15.8512 35.287 16.1054 35.287 16.3866C35.287 16.6657 35.3269 16.919 35.4067 17.1463C35.4884 17.3736 35.611 17.555 35.7745 17.6906C35.9401 17.8242 36.1474 17.891 36.3967 17.891ZM41.1722 20.4872C40.7833 20.4872 40.4493 20.4344 40.1702 20.3287C39.891 20.225 39.6667 20.0854 39.4972 19.91C39.3277 19.7345 39.2101 19.5401 39.1443 19.3267L40.1193 19.0904C40.1632 19.1802 40.227 19.2689 40.3108 19.3566C40.3945 19.4464 40.5072 19.5201 40.6487 19.578C40.7923 19.6378 40.9728 19.6677 41.1901 19.6677C41.4972 19.6677 41.7514 19.5929 41.9528 19.4434C42.1542 19.2958 42.2549 19.0525 42.2549 18.7136V17.8432H42.2011C42.1453 17.9548 42.0635 18.0695 41.9558 18.1871C41.8501 18.3048 41.7096 18.4035 41.5341 18.4833C41.3606 18.563 41.1423 18.6029 40.8791 18.6029C40.5261 18.6029 40.2061 18.5201 39.9189 18.3546C39.6338 18.1871 39.4065 17.9379 39.237 17.6069C39.0695 17.2739 38.9857 16.8571 38.9857 16.3566C38.9857 15.8522 39.0695 15.4264 39.237 15.0795C39.4065 14.7305 39.6348 14.4663 39.9219 14.2869C40.2091 14.1054 40.5291 14.0147 40.882 14.0147C41.1512 14.0147 41.3726 14.0605 41.5461 14.1523C41.7215 14.242 41.8611 14.3507 41.9648 14.4783C42.0685 14.6039 42.1472 14.7225 42.2011 14.8342H42.2609V14.0745H43.3287V18.7435C43.3287 19.1363 43.235 19.4613 43.0475 19.7185C42.8601 19.9758 42.6039 20.1682 42.2789 20.2958C41.9538 20.4234 41.5849 20.4872 41.1722 20.4872ZM41.1811 17.7534C41.4105 17.7534 41.6059 17.6976 41.7674 17.586C41.9289 17.4743 42.0515 17.3138 42.1353 17.1044C42.219 16.895 42.2609 16.6438 42.2609 16.3507C42.2609 16.0615 42.219 15.8083 42.1353 15.5909C42.0535 15.3736 41.9319 15.2051 41.7704 15.0855C41.6109 14.9638 41.4144 14.903 41.1811 14.903C40.9399 14.903 40.7385 14.9658 40.577 15.0914C40.4154 15.2171 40.2938 15.3895 40.2121 15.6089C40.1303 15.8262 40.0894 16.0735 40.0894 16.3507C40.0894 16.6318 40.1303 16.8781 40.2121 17.0894C40.2958 17.2988 40.4184 17.4623 40.58 17.58C40.7435 17.6956 40.9439 17.7534 41.1811 17.7534ZM45.1842 12.5431V18.6687H44.1015V12.5431H45.1842ZM47.9946 18.7584C47.534 18.7584 47.1362 18.6627 46.8012 18.4713C46.4682 18.2779 46.212 18.0047 46.0325 17.6518C45.853 17.2968 45.7633 16.8791 45.7633 16.3985C45.7633 15.9259 45.853 15.5112 46.0325 15.1543C46.214 14.7953 46.4672 14.5162 46.7922 14.3168C47.1172 14.1154 47.4991 14.0147 47.9378 14.0147C48.2209 14.0147 48.4881 14.0605 48.7394 14.1523C48.9926 14.242 49.2159 14.3816 49.4094 14.571C49.6048 14.7604 49.7583 15.0017 49.87 15.2948C49.9816 15.586 50.0375 15.9329 50.0375 16.3357V16.6677H46.2718V15.9379H48.9996C48.9976 15.7305 48.9527 15.5461 48.865 15.3846C48.7773 15.221 48.6546 15.0924 48.4971 14.9987C48.3416 14.905 48.1601 14.8581 47.9527 14.8581C47.7314 14.8581 47.537 14.912 47.3695 15.0197C47.202 15.1253 47.0714 15.2649 46.9777 15.4384C46.8859 15.6099 46.8391 15.7983 46.8371 16.0037V16.6408C46.8371 16.908 46.8859 17.1373 46.9836 17.3287C47.0813 17.5182 47.2179 17.6637 47.3934 17.7654C47.5689 17.8651 47.7743 17.915 48.0096 17.915C48.1671 17.915 48.3097 17.893 48.4373 17.8492C48.5649 17.8033 48.6756 17.7365 48.7693 17.6488C48.863 17.561 48.9338 17.4524 48.9816 17.3227L49.9926 17.4364C49.9288 17.7036 49.8072 17.9369 49.6277 18.1363C49.4502 18.3337 49.2229 18.4872 48.9458 18.5969C48.6686 18.7046 48.3515 18.7584 47.9946 18.7584ZM52.4167 18.6687V12.5431H54.7138C55.1844 12.5431 55.5793 12.6308 55.8983 12.8063C56.2193 12.9818 56.4616 13.223 56.6251 13.5301C56.7906 13.8352 56.8734 14.1822 56.8734 14.571C56.8734 14.9638 56.7906 15.3128 56.6251 15.6179C56.4596 15.9229 56.2153 16.1632 55.8923 16.3387C55.5693 16.5122 55.1715 16.5989 54.6989 16.5989H53.1765V15.6867H54.5493C54.8245 15.6867 55.0498 15.6388 55.2253 15.5431C55.4008 15.4474 55.5304 15.3158 55.6141 15.1483C55.6999 14.9808 55.7428 14.7883 55.7428 14.571C55.7428 14.3537 55.6999 14.1622 55.6141 13.9967C55.5304 13.8312 55.3998 13.7026 55.2223 13.6109C55.0468 13.5172 54.8205 13.4703 54.5434 13.4703H53.5264V18.6687H52.4167ZM58.5352 12.5431V18.6687H57.4525V12.5431H58.5352ZM60.6337 18.7614C60.3426 18.7614 60.0804 18.7096 59.8471 18.6059C59.6158 18.5002 59.4323 18.3447 59.2968 18.1393C59.1632 17.9339 59.0964 17.6807 59.0964 17.3796C59.0964 17.1203 59.1442 16.906 59.2399 16.7365C59.3356 16.567 59.4662 16.4314 59.6317 16.3297C59.7973 16.228 59.9837 16.1513 60.1911 16.0994C60.4004 16.0456 60.6168 16.0067 60.8401 15.9828C61.1093 15.9548 61.3277 15.9299 61.4952 15.908C61.6627 15.8841 61.7843 15.8482 61.8601 15.8003C61.9378 15.7505 61.9767 15.6737 61.9767 15.57V15.5521C61.9767 15.3267 61.9099 15.1523 61.7763 15.0286C61.6427 14.905 61.4503 14.8432 61.199 14.8432C60.9338 14.8432 60.7235 14.901 60.5679 15.0167C60.4144 15.1323 60.3107 15.2689 60.2569 15.4264L59.2459 15.2829C59.3257 15.0037 59.4573 14.7704 59.6407 14.583C59.8242 14.3935 60.0485 14.252 60.3137 14.1582C60.5789 14.0625 60.872 14.0147 61.1931 14.0147C61.4144 14.0147 61.6347 14.0406 61.8541 14.0924C62.0734 14.1443 62.2738 14.23 62.4553 14.3497C62.6367 14.4673 62.7823 14.6278 62.892 14.8312C63.0036 15.0346 63.0595 15.2888 63.0595 15.5939V18.6687H62.0186V18.0376H61.9827C61.9169 18.1652 61.8242 18.2849 61.7045 18.3965C61.5869 18.5062 61.4383 18.5949 61.2589 18.6627C61.0814 18.7285 60.873 18.7614 60.6337 18.7614ZM60.9149 17.9658C61.1322 17.9658 61.3207 17.9229 61.4802 17.8372C61.6397 17.7495 61.7624 17.6338 61.8481 17.4902C61.9358 17.3467 61.9797 17.1901 61.9797 17.0206V16.4793C61.9458 16.5072 61.888 16.5331 61.8062 16.557C61.7265 16.581 61.6367 16.6019 61.537 16.6199C61.4373 16.6378 61.3386 16.6537 61.2409 16.6677C61.1432 16.6817 61.0585 16.6936 60.9867 16.7036C60.8252 16.7255 60.6806 16.7614 60.553 16.8113C60.4254 16.8611 60.3247 16.9309 60.2509 17.0206C60.1771 17.1084 60.1402 17.222 60.1402 17.3616C60.1402 17.561 60.213 17.7116 60.3586 17.8133C60.5041 17.915 60.6896 17.9658 60.9149 17.9658ZM64.3198 20.3915C64.1722 20.3915 64.0356 20.3796 63.91 20.3556C63.7864 20.3337 63.6877 20.3078 63.6139 20.2779L63.8651 19.4344C64.0226 19.4803 64.1632 19.5022 64.2869 19.5002C64.4105 19.4982 64.5192 19.4593 64.6129 19.3836C64.7086 19.3098 64.7893 19.1861 64.8551 19.0127L64.9479 18.7644L63.2819 14.0745H64.4304L65.4892 17.5441H65.5371L66.5989 14.0745H67.7505L65.911 19.225C65.8252 19.4683 65.7116 19.6767 65.57 19.8502C65.4284 20.0256 65.2549 20.1592 65.0496 20.251C64.8462 20.3447 64.6029 20.3915 64.3198 20.3915Z" fill="black"/>
</svg>
