<svg width="23" height="24" viewBox="0 0 23 24" fill="none" xmlns="http://www.w3.org/2000/svg">
<rect x="0.48999" y="0.666992" width="22.0121" height="22.0121" rx="2.0011" fill="black"/>
<path d="M3.81272 19V8.0849H6.38515V19H3.81272ZM5.10604 6.53576C4.69862 6.53576 4.34805 6.40074 4.05433 6.1307C3.7606 5.85593 3.61374 5.52668 3.61374 5.14294C3.61374 4.75447 3.7606 4.42522 4.05433 4.15518C4.34805 3.88041 4.69862 3.74303 5.10604 3.74303C5.5182 3.74303 5.86877 3.88041 6.15776 4.15518C6.45148 4.42522 6.59834 4.75447 6.59834 5.14294C6.59834 5.52668 6.45148 5.85593 6.15776 6.1307C5.86877 6.40074 5.5182 6.53576 5.10604 6.53576ZM11.6029 12.6044V19H9.03043V8.0849H11.4892V9.93962H11.6171C11.8682 9.32849 12.2685 8.8429 12.818 8.48285C13.3723 8.1228 14.0569 7.94278 14.8717 7.94278C15.625 7.94278 16.2811 8.10385 16.8401 8.426C17.4039 8.74815 17.8397 9.21479 18.1477 9.82592C18.4603 10.4371 18.6143 11.1785 18.6096 12.0502V19H16.0371V12.4481C16.0371 11.7185 15.8476 11.1477 15.4686 10.7355C15.0944 10.3234 14.5756 10.1173 13.9124 10.1173C13.4623 10.1173 13.062 10.2168 12.7114 10.4157C12.3656 10.61 12.0932 10.8918 11.8942 11.2614C11.7 11.6309 11.6029 12.0786 11.6029 12.6044Z" fill="white"/>
</svg>
