<?xml version="1.0" encoding="UTF-8" ?>
<!DOCTYPE svg PUBLIC "-//W3C//DTD SVG 1.1//EN" "http://www.w3.org/Graphics/SVG/1.1/DTD/svg11.dtd">
<svg width="1154pt" height="148pt" viewBox="0 0 1154 148" version="1.1" xmlns="http://www.w3.org/2000/svg">
<g id="#ff0000ff">
<path fill="#ff0000" opacity="1.00" d=" M 83.57 0.00 L 83.90 0.00 C 90.61 11.01 97.14 22.14 103.74 33.22 C 94.13 41.19 84.37 48.98 74.75 56.95 C 102.17 48.19 128.39 34.86 157.22 31.14 C 136.61 42.33 115.34 52.30 94.97 63.94 C 69.56 78.29 45.36 95.04 24.23 115.25 C 17.21 122.16 9.83 128.69 2.36 135.10 C 29.30 89.99 56.50 45.03 83.57 0.00 Z" />
<path fill="#ff0000" opacity="1.00" d=" M 497.00 22.00 C 504.25 22.00 511.50 21.99 518.76 22.01 C 518.73 36.92 518.80 51.84 518.72 66.76 C 522.12 62.65 526.48 59.05 531.84 57.98 C 539.18 56.43 547.62 57.34 553.50 62.37 C 559.05 67.23 560.98 74.94 561.01 82.07 C 560.99 94.71 561.00 107.35 561.00 120.00 C 553.75 120.00 546.49 120.01 539.24 119.99 C 539.24 108.99 539.25 97.99 539.25 86.99 C 539.13 83.26 538.57 78.96 535.52 76.43 C 531.31 73.46 524.66 74.31 521.58 78.54 C 519.34 81.51 518.72 85.34 518.74 88.96 C 518.77 99.31 518.74 109.65 518.76 119.99 C 511.50 120.01 504.25 120.00 497.00 120.00 C 497.00 87.33 497.00 54.67 497.00 22.00 Z" />
<path fill="#ff0000" opacity="1.00" d=" M 611.00 22.00 C 618.25 22.00 625.50 21.99 632.76 22.01 C 632.75 41.62 632.75 61.23 632.76 80.85 C 640.27 73.75 647.29 66.06 655.14 59.34 C 664.94 59.12 674.75 59.28 684.56 59.28 C 674.54 68.81 664.28 78.08 654.11 87.44 C 664.94 98.22 675.60 109.16 686.37 120.00 C 676.19 120.01 666.02 119.99 655.85 120.01 C 648.09 112.03 640.53 103.85 632.76 95.88 C 632.74 103.92 632.75 111.96 632.76 119.99 C 625.50 120.01 618.25 120.00 611.00 120.00 C 611.00 87.33 611.00 54.67 611.00 22.00 Z" />
<path fill="#ff0000" opacity="1.00" d=" M 582.45 24.49 C 588.77 22.49 596.10 26.68 597.62 33.12 C 599.67 40.05 594.21 47.98 586.95 48.33 C 580.37 49.18 573.80 43.64 573.71 36.98 C 573.15 31.42 577.11 25.94 582.45 24.49 Z" />
<path fill="#ff0000" opacity="1.00" d=" M 253.44 31.10 C 262.01 30.87 270.59 31.06 279.17 31.00 C 290.33 60.67 301.51 90.34 312.69 120.00 C 304.36 120.00 296.02 120.00 287.69 120.00 C 285.78 114.92 283.88 109.84 281.97 104.75 C 271.41 104.75 260.86 104.75 250.31 104.76 C 248.23 109.82 246.31 114.94 244.24 120.01 C 235.95 119.99 227.66 120.00 219.37 120.00 C 230.66 90.34 242.27 60.81 253.44 31.10 M 256.79 86.75 C 263.07 86.75 269.34 86.75 275.61 86.75 C 272.53 77.39 269.36 68.05 266.29 58.68 C 263.12 68.04 259.90 77.37 256.79 86.75 Z" />
<path fill="#ff0000" opacity="1.00" d=" M 457.01 41.24 C 464.25 41.25 471.50 41.24 478.75 41.25 C 478.75 47.25 478.75 53.24 478.76 59.24 C 482.75 59.25 486.75 59.25 490.75 59.25 C 490.75 65.25 490.75 71.25 490.75 77.25 C 486.75 77.25 482.75 77.25 478.76 77.25 C 478.75 91.50 478.75 105.74 478.76 119.99 C 471.50 120.01 464.25 120.00 457.00 120.00 C 457.00 105.75 457.01 91.50 456.99 77.25 C 454.66 77.25 452.33 77.25 450.00 77.25 C 450.00 71.25 449.99 65.25 450.01 59.24 C 452.33 59.25 454.66 59.25 457.00 59.25 C 457.00 53.25 456.99 47.24 457.01 41.24 Z" />
<path fill="#ff0000" opacity="1.00" d=" M 325.49 64.49 C 335.96 55.13 353.75 54.60 363.81 64.86 C 363.76 62.99 363.74 61.12 363.74 59.25 C 370.99 59.24 378.24 59.25 385.49 59.24 C 385.51 79.49 385.50 99.75 385.50 120.00 C 378.24 120.00 370.99 120.00 363.73 120.00 C 363.74 117.85 363.76 115.70 363.82 113.55 C 359.90 118.88 353.42 121.87 346.88 122.08 C 336.71 122.80 326.40 117.83 320.68 109.39 C 311.08 95.95 312.90 75.43 325.49 64.49 M 347.50 76.55 C 339.29 77.81 334.85 87.63 337.95 95.00 C 340.78 103.28 352.12 105.57 358.93 100.86 C 365.74 96.28 366.19 85.16 360.16 79.75 C 356.84 76.60 351.89 75.64 347.50 76.55 Z" />
<path fill="#ff0000" opacity="1.00" d=" M 399.01 59.24 C 406.25 59.25 413.50 59.24 420.75 59.25 C 420.75 62.45 420.76 65.66 420.72 68.86 C 423.15 65.24 426.31 61.94 430.46 60.34 C 434.95 58.39 439.95 58.41 444.76 58.50 C 444.76 65.49 444.72 72.49 444.78 79.49 C 439.55 77.02 433.21 76.62 427.86 78.92 C 422.73 81.55 420.89 87.64 420.78 93.03 C 420.70 102.02 420.78 111.01 420.76 119.99 C 413.50 120.01 406.25 120.00 399.00 120.00 C 399.00 99.75 398.99 79.49 399.01 59.24 Z" />
<path fill="#ff0000" opacity="1.00" d=" M 575.00 59.24 C 582.25 59.25 589.50 59.24 596.75 59.25 C 596.76 79.50 596.75 99.75 596.76 119.99 C 589.50 120.01 582.25 120.00 575.00 120.00 C 575.00 99.75 574.99 79.50 575.00 59.24 Z" />
<path fill="#ff0000" opacity="1.00" d=" M 1029.24 86.51 C 1032.11 86.50 1034.99 86.50 1037.88 86.50 C 1042.87 93.02 1047.96 99.46 1052.98 105.97 C 1053.02 99.48 1052.99 92.99 1053.00 86.50 C 1055.91 86.50 1058.83 86.50 1061.76 86.51 C 1061.75 97.34 1061.75 108.17 1061.76 119.00 C 1058.84 119.00 1055.93 119.00 1053.02 119.00 C 1047.89 112.51 1042.85 105.95 1037.76 99.42 C 1037.74 105.95 1037.75 112.47 1037.76 119.00 C 1034.91 119.00 1032.07 119.00 1029.24 118.99 C 1029.25 108.16 1029.25 97.33 1029.24 86.51 Z" />
<path fill="#ff0000" opacity="1.00" d=" M 1069.54 98.51 C 1074.37 95.17 1081.52 95.09 1086.16 98.84 C 1089.22 101.44 1089.91 105.67 1089.87 109.48 C 1084.27 109.57 1078.67 109.38 1073.08 109.62 C 1073.52 114.21 1079.47 115.49 1082.16 112.05 C 1084.70 111.98 1087.25 111.99 1089.82 112.05 C 1087.65 120.04 1077.34 121.62 1070.85 118.18 C 1063.87 114.41 1063.38 103.25 1069.54 98.51 M 1073.28 104.67 C 1076.40 104.78 1079.53 104.79 1082.66 104.66 C 1081.47 103.15 1080.17 101.19 1077.96 101.46 C 1075.72 101.15 1074.39 103.09 1073.28 104.67 Z" />
<path fill="#ff0000" opacity="1.00" d=" M 1139.64 97.69 C 1143.86 95.09 1149.03 96.09 1153.54 97.29 C 1152.67 99.06 1151.79 100.81 1150.90 102.56 C 1148.86 102.38 1144.30 100.25 1144.12 103.70 C 1147.64 105.19 1152.49 105.27 1154.00 109.50 L 1154.00 113.42 C 1153.21 115.32 1152.19 117.29 1150.27 118.24 C 1145.29 120.97 1139.15 119.87 1134.29 117.42 C 1135.28 115.51 1136.29 113.60 1137.29 111.69 C 1140.02 112.77 1144.48 115.67 1146.37 111.89 C 1143.68 110.16 1140.19 110.22 1137.64 108.30 C 1134.89 105.19 1136.07 99.71 1139.64 97.69 Z" />
<path fill="#ff0000" opacity="1.00" d=" M 1089.63 96.76 C 1092.63 96.74 1095.65 96.75 1098.67 96.76 C 1100.46 100.59 1102.02 104.54 1104.15 108.22 C 1105.95 104.45 1107.71 100.66 1109.38 96.84 C 1111.00 96.78 1112.62 96.74 1114.27 96.70 C 1116.14 100.59 1117.91 104.54 1119.81 108.42 C 1121.62 104.55 1123.43 100.67 1125.20 96.76 C 1128.21 96.74 1131.22 96.74 1134.24 96.77 C 1130.39 104.19 1126.51 111.60 1122.62 119.00 C 1120.80 119.00 1118.99 119.00 1117.19 118.99 C 1115.17 115.47 1114.39 110.88 1111.62 108.02 C 1109.87 111.64 1108.32 115.34 1106.66 118.99 C 1104.81 119.00 1102.97 119.00 1101.15 119.00 C 1097.39 111.55 1093.35 104.23 1089.63 96.76 Z" />
</g>
<g id="#102085ff">
<path fill="#102085" opacity="1.00" d=" M 692.50 38.97 C 692.55 36.34 692.25 33.67 692.70 31.06 C 704.46 30.91 716.22 31.04 727.99 31.00 C 735.26 31.12 743.28 33.14 747.91 39.18 C 752.35 45.19 752.85 53.27 751.55 60.39 C 750.60 65.56 747.16 69.93 742.61 72.43 C 748.53 73.23 754.48 76.18 757.43 81.59 C 760.84 87.89 761.26 95.55 759.65 102.43 C 757.81 109.80 751.57 115.32 744.52 117.63 C 737.64 120.21 730.21 120.12 722.98 120.00 C 712.81 119.98 702.64 120.05 692.47 119.96 C 692.53 92.96 692.49 65.97 692.50 38.97 M 715.76 48.69 C 715.75 54.39 715.74 60.08 715.76 65.78 C 720.18 65.72 725.39 66.24 728.81 62.82 C 731.69 59.36 731.35 53.09 727.29 50.65 C 723.81 48.61 719.62 49.02 715.76 48.69 M 715.76 83.26 C 715.75 89.59 715.75 95.92 715.76 102.25 C 721.51 102.14 727.67 102.67 732.98 100.01 C 738.66 96.94 738.12 87.16 732.09 84.80 C 726.93 82.68 721.20 83.36 715.76 83.26 Z" />
<path fill="#102085" opacity="1.00" d=" M 123.40 61.57 C 147.51 51.29 172.70 43.58 198.38 38.39 C 194.92 40.05 191.29 41.26 187.77 42.76 C 166.71 51.60 146.89 63.14 127.88 75.75 C 98.26 95.61 70.57 118.25 44.28 142.31 C 42.29 143.91 40.68 146.31 38.25 147.17 C 25.80 147.35 13.33 147.24 0.87 147.21 C 35.31 110.73 77.21 81.20 123.40 61.57 Z" />
<path fill="#102085" opacity="1.00" d=" M 778.50 64.49 C 788.96 55.13 806.73 54.61 816.81 64.85 C 816.76 62.98 816.74 61.11 816.74 59.25 C 823.99 59.25 831.24 59.25 838.49 59.24 C 838.51 79.49 838.50 99.75 838.50 120.00 C 831.24 120.00 823.99 120.00 816.73 120.00 C 816.74 117.85 816.76 115.71 816.82 113.57 C 812.88 118.86 806.44 121.87 799.91 122.08 C 789.44 122.84 778.86 117.54 773.21 108.71 C 764.12 95.26 766.13 75.24 778.50 64.49 M 800.36 76.57 C 792.22 77.92 787.87 87.68 790.95 94.99 C 793.77 103.28 805.10 105.57 811.91 100.88 C 818.71 96.33 819.19 85.25 813.23 79.81 C 809.87 76.58 804.82 75.61 800.36 76.57 Z" />
<path fill="#102085" opacity="1.00" d=" M 921.55 67.45 C 931.42 55.48 951.69 53.51 962.79 64.84 C 962.76 62.97 962.75 61.10 962.77 59.23 C 970.01 59.26 977.24 59.25 984.49 59.24 C 984.52 79.49 984.50 99.75 984.50 120.00 C 977.24 120.00 969.99 120.00 962.73 120.00 C 962.74 117.85 962.76 115.71 962.82 113.57 C 954.27 124.90 936.46 124.31 925.99 116.02 C 911.30 104.85 909.47 81.20 921.55 67.45 M 946.45 76.56 C 938.29 77.84 933.87 87.60 936.93 94.94 C 939.71 103.25 951.04 105.58 957.87 100.91 C 964.73 96.35 965.20 85.19 959.17 79.75 C 955.83 76.59 950.86 75.63 946.45 76.56 Z" />
<path fill="#102085" opacity="1.00" d=" M 849.54 59.22 C 869.84 59.30 890.14 59.20 910.44 59.27 C 901.07 73.55 891.55 87.72 882.18 102.00 C 890.62 102.00 899.06 102.00 907.50 102.00 C 907.50 108.00 907.50 114.00 907.50 120.00 C 886.91 120.00 866.33 120.00 845.74 120.00 C 855.22 105.87 864.60 91.67 873.99 77.48 C 865.82 77.52 857.66 77.50 849.50 77.50 C 849.51 71.41 849.46 65.31 849.54 59.22 Z" />
<path fill="#102085" opacity="1.00" d=" M 998.01 59.24 C 1005.25 59.25 1012.50 59.24 1019.75 59.25 C 1019.75 62.45 1019.75 65.64 1019.72 68.84 C 1024.52 60.45 1034.64 57.57 1043.76 58.50 C 1043.75 65.48 1043.73 72.47 1043.77 79.45 C 1038.54 77.05 1032.24 76.61 1026.90 78.90 C 1021.73 81.51 1019.88 87.66 1019.78 93.07 C 1019.69 102.04 1019.78 111.02 1019.76 119.99 C 1012.50 120.01 1005.25 120.00 998.00 120.00 C 998.00 99.75 997.99 79.49 998.01 59.24 Z" />
<path fill="#102085" opacity="1.00" d=" M 109.62 108.53 C 124.82 87.40 148.98 75.78 171.53 64.22 C 156.24 73.95 142.45 86.34 132.41 101.52 C 131.14 103.34 130.30 105.41 129.72 107.54 C 135.62 105.27 141.09 102.06 146.80 99.37 C 155.92 115.55 164.79 131.87 173.99 148.00 L 131.32 148.00 C 123.95 134.92 116.92 121.65 109.62 108.53 Z" />
</g>
</svg>
