<?xml version="1.0" encoding="utf-8"?>
<!-- Generator: Adobe Illustrator 25.2.3, SVG Export Plug-In . SVG Version: 6.00 Build 0)  -->
<svg version="1.1" id="Layer_1" xmlns="http://www.w3.org/2000/svg" xmlns:xlink="http://www.w3.org/1999/xlink" x="0px" y="0px"
	 width="523.3px" height="167.9px" viewBox="0 0 523.3 167.9" style="enable-background:new 0 0 523.3 167.9;" xml:space="preserve"
	>
<style type="text/css">
	.st0{fill:#DC1E3E;}
	.st1{fill:#21418D;}
</style>
<g>
	<g>
		<path class="st0" d="M328,43.5l-60.7,23c-0.4,0.1-0.8,0-1-0.3l-12.6-18.4c-0.3-0.5-1.1-0.1-0.9,0.4l8.1,25.9
			c0.6,1.5,2.1,2.4,3.8,2.4c0.9,0,1.5-0.3,2.3-0.7l61.2-31.7C328.6,43.9,328.3,43.4,328,43.5z"/>
		<g>
			<path class="st1" d="M310,25.1c0,6.6-5.3,11.9-11.9,11.9c-6.6,0-11.9-5.3-11.9-11.9c0-6.5,5.3-11.9,11.9-11.9
				C304.7,13.2,310,18.5,310,25.1z"/>
		</g>
		<g>
			<path class="st1" d="M274.6,12.5c0,5.5-4.4,9.9-9.9,9.9s-9.9-4.4-9.9-9.9c0-5.5,4.4-9.9,9.9-9.9S274.6,7,274.6,12.5z"/>
		</g>
		<g>
			<path class="st1" d="M241.7,18.8c0,4.4-3.5,7.9-7.9,7.9c-4.4,0-7.9-3.5-7.9-7.9c0-4.4,3.5-7.9,7.9-7.9
				C238.1,10.9,241.7,14.4,241.7,18.8z"/>
		</g>
		<g>
			<path class="st1" d="M219.1,34.6c0,3.3-2.7,5.9-5.9,5.9c-3.3,0-5.9-2.7-5.9-5.9c0-3.3,2.7-5.9,5.9-5.9
				C216.4,28.7,219.1,31.4,219.1,34.6z"/>
		</g>
		<g>
			<path class="st1" d="M205.4,53.7c0,2.2-1.8,4-4,4c-2.2,0-4-1.8-4-4s1.8-4,4-4C203.6,49.8,205.4,51.5,205.4,53.7z"/>
		</g>
		<g>
			<path class="st1" d="M200.1,72.3c0,1.5-1.2,2.6-2.6,2.6c-1.5,0-2.6-1.2-2.6-2.6s1.2-2.6,2.6-2.6C199,69.7,200.1,70.9,200.1,72.3z
				"/>
		</g>
	</g>
	<g>
		<path class="st1" d="M68.6,97c-3.9-6.7-7.2-11.6-9.9-14.7C56,79.1,53.1,77,50.3,76c-2.7-1-6.5-1.5-11.2-1.5h-4.6v9.3h4.8
			c3,0,5.4,0.3,7.1,0.9c1.6,0.6,3.4,1.9,5.2,3.8c1.7,1.8,3.8,4.7,6.3,8.6H4.4v9.6h54.7v9.3H26.4c-6.1,0-11.4,2.2-15.7,6.5
			c-4.3,4.3-6.5,9.6-6.5,15.7c0,6,2.2,11.2,6.5,15.6c4.3,4.4,9.5,6.6,15.5,6.6c6,0,11.4-2.2,15.9-6.5c4.5-4.3,6.8-9.6,6.8-15.7
			c0-2.4-0.4-4.9-1.3-7.2l-10.2,0c-0.4,0-0.6,0.4-0.4,0.7c1.1,1.7,1.7,3.8,1.7,6.1c0,3.5-1.2,6.5-3.4,8.9c-2.3,2.4-5.2,3.6-8.7,3.6
			c-3.5,0-6.4-1.2-8.6-3.4c-2.2-2.3-3.3-5.2-3.3-8.7c0-3.5,1.1-6.5,3.3-8.8c2.2-2.3,5.1-3.5,8.6-3.5h32.7v39.4h11.4v-58.5h14.1v25.2
			c0,3.1,0.5,6,1.4,8.6c0.9,2.6,2.3,4.9,4.2,6.9s4.2,3.5,7,4.5c2.8,1.1,6,1.6,9.7,1.6c3.6,0,6.8-0.5,9.6-1.6c0.3-0.1,0.6-0.3,1-0.4
			v13.7h11.8v-58.5h14.5v58.7h11.4v-58.7H232l0,7.3c-0.9-0.1-1.8-0.1-2.7-0.1c-6.9,0-13,2.4-18.1,7.3c0,0-0.1,0.1-0.1,0.1l-0.1-0.1
			l-0.3-0.3c-4.9-4.6-10.8-6.9-17.5-6.9c-6.9,0-13,2.4-18.1,7.3c-5.1,4.8-7.7,10.8-7.7,17.7c0,6.9,2.5,13.1,7.6,18.3
			c5,5.2,11,7.8,17.9,7.8c4.3,0,8.6-1.2,12.7-3.5l0.5-0.3l-1.7-11.4c-0.1-0.3-0.5-0.5-0.7-0.2c-2.8,3-6.3,4.6-10.4,4.6
			c-4.1,0-7.7-1.4-10.5-4.2c-2.8-2.8-4.3-6.3-4.3-10.4c0-4.1,1.4-7.6,4.3-10.4c2.9-2.8,6.4-4.2,10.5-4.2c5,0,8.9,2,11.6,6
			c-0.9,2.5-1.4,5.2-1.4,8.1c0,0.6,0,1.2,0.1,1.8l12.1,4.2c-0.7-1.7-1-3.5-1-5.5c0-4.1,1.4-7.6,4.3-10.4c2.9-2.8,6.4-4.2,10.5-4.2
			c0.9,0,1.7,0.1,2.6,0.2l0,40h11.4v-58.2h11.3V97H68.6z M117.5,131.6c0,1.5-0.3,3-0.8,4.3c-0.5,1.4-1.3,2.6-2.2,3.6
			c-0.9,1-2.1,1.8-3.4,2.4c-1.3,0.6-2.7,0.9-4.2,0.9c-1.5,0-3-0.3-4.3-0.9c-1.3-0.6-2.4-1.4-3.4-2.4c-0.9-1-1.7-2.2-2.2-3.6
			c-0.5-1.4-0.8-2.9-0.8-4.5v-24.8h21.2V131.6z"/>
		<path class="st1" d="M275.8,97.1v9.6h28.6c5,3.3,7.5,8.3,7.5,15.1c0,4.3-1.3,7.9-3.9,10.7c-2.5,2.8-6,4.2-10.3,4.2
			c-2.4,0-4.9-0.8-7.3-2.5c-0.1-0.1-1.1-0.8-6.5-5.6l-0.8-0.7l-7.4,8l33.7,28.9l0.3,0.2h17.3l-22-18.8c5.4-1.7,9.6-4.4,12.6-8.3
			h23.5v27h11.1v-58.5H399v35.3c0,3.4-1.1,6.2-3.2,8.3c-2.1,2.1-5,3.2-8.4,3.2c-3.4,0-6.2-1.1-8.4-3.2c-2.1-2.1-3.2-4.9-3.2-8.3
			c0-3.3,1.2-6.1,3.4-8.4c2.3-2.2,5.1-3.4,8.5-3.4c1.8,0,3.4,0.2,5.5,1.4c0.4,0.2,0.8-0.1,0.8-0.5v-11.4c-2.2-0.7-4.5-1.1-6.7-1.1
			c-6.3,0-11.8,2.4-16.3,7c-4.5,4.7-6.7,10.2-6.7,16.5c0,6.2,2.3,11.6,6.8,16.1c4.5,4.4,10,6.7,16.2,6.7c6.4,0,11.9-2.2,16.4-6.7
			c4.5-4.4,6.8-9.9,6.8-16.3v-9.6h18.5v32.5h11.6v-58.4l26.6-0.1c0.9,1.9,1.4,4.1,1.4,6.3c0,4.9-2.4,9.2-6.1,11.9
			c-0.2,0.2-0.4,0.3-0.7,0.5c-0.2,0.1-0.4,0.2-0.6,0.4c-0.2,0.1-0.3,0.2-0.5,0.3c-0.4,0.2-0.8,0.4-1.2,0.6c-0.1,0.1-0.2,0.1-0.4,0.1
			c-0.3,0.1-0.6,0.2-0.9,0.3c-0.1,0-0.3,0.1-0.4,0.1c-0.3,0.1-0.6,0.2-0.9,0.2c-0.2,0-0.3,0.1-0.5,0.1c-0.3,0.1-0.6,0.1-1,0.1
			c-0.1,0-0.3,0-0.4,0.1c-0.5,0-0.9,0.1-1.4,0.1c-0.9,0-1.8-0.1-2.7-0.3c0,0.7,0,1.4,0.1,2.1c0,0,0,0,0,0c0,0,0,0.1,0,0.1
			c0,0.5,0.1,1.1,0.2,1.6c0.1,0.8,0.2,1.6,0.4,2.3c0,0.1,0.1,0.3,0.1,0.4c0.1,0.4,0.2,0.7,0.3,1.1c0,0,0,0.1,0,0.1
			c0.1,0.5,0.3,0.9,0.4,1.4c0.3,1,0.7,1.9,1.2,2.9c4.6,9.5,14.3,16.1,25.6,16.1c6.3,0,12.2-2.1,16.9-5.6v15.2h11.4v-58.7h11.5v-9.5
			H275.8z M341.2,128.1h-18.8c0.4-2,0.7-4.1,0.7-6.3c0-6.1-1.5-11.1-4.5-15.1h22.7V128.1z M428.9,123h-18.5v-16.2h18.5V123z
			 M496.1,127.3c0,9.3-7.5,16.8-16.8,16.8c-5.8,0-10.9-2.9-13.9-7.3c8.8-4.3,14.8-13.4,14.8-23.8c0-0.8,0-1.6-0.1-2.5
			c-0.1-1.3-0.4-2.6-0.7-3.9h16.7C496.1,106.6,496.1,127,496.1,127.3z"/>
	</g>
</g>
</svg>
